<svg width="29" height="29" viewBox="0 0 29 29" fill="none" xmlns="http://www.w3.org/2000/svg">
<path fill-rule="evenodd" clip-rule="evenodd" d="M14.8291 25.7046C16.2572 25.7046 17.6714 25.4233 18.9908 24.8768C20.3102 24.3303 21.5091 23.5292 22.5189 22.5194C23.5287 21.5095 24.3298 20.3107 24.8763 18.9913C25.4228 17.6719 25.7041 16.2577 25.7041 14.8296C25.7041 13.4015 25.4228 11.9873 24.8763 10.6679C24.3298 9.34849 23.5287 8.14964 22.5189 7.1398C21.5091 6.12997 20.3102 5.32892 18.9908 4.7824C17.6714 4.23588 16.2572 3.95459 14.8291 3.95459C11.9449 3.95459 9.17877 5.10035 7.13932 7.1398C5.09986 9.17926 3.9541 11.9454 3.9541 14.8296C3.9541 17.7138 5.09986 20.4799 7.13932 22.5194C9.17877 24.5588 11.9449 25.7046 14.8291 25.7046ZM14.5488 19.2279L20.5904 11.9779L18.7344 10.4313L13.5386 16.665L10.8501 13.9753L9.14148 15.6839L12.7665 19.3089L13.7017 20.2441L14.5488 19.2279Z" fill="white"/>
</svg>
