<?xml version="1.0" encoding="UTF-8"?>
<svg version="1.1" xmlns="http://www.w3.org/2000/svg" width="222" height="227">
<path d="M0 0 C2.64476451 1.40164176 4.76996636 3.0659847 7.1015625 4.9375 C11.37868603 8.11171746 15.14109997 8.98133229 20.3515625 9.4375 C41.6619124 11.32723427 61.80596619 27.74000647 75.2890625 43.6875 C76.71027245 45.54333889 78.10518425 47.41954004 79.4765625 49.3125 C79.87149902 49.83972656 80.26643555 50.36695313 80.67333984 50.91015625 C87.39820583 59.95005408 91.9127934 69.37961024 96.1640625 79.78125 C98.93636411 86.53330165 102.10803762 93.08314686 105.29101562 99.64892578 C105.89333008 100.89391846 105.89333008 100.89391846 106.5078125 102.1640625 C106.86423828 102.89447754 107.22066406 103.62489258 107.58789062 104.37744141 C108.4765625 106.3125 108.4765625 106.3125 109.4765625 109.3125 C111.23859687 110.16181097 111.23859687 110.16181097 113.4140625 110.6875 C128.29442165 115.27149689 146.69751034 127.13313668 155.4765625 140.3125 C155.1465625 141.3025 154.8165625 142.2925 154.4765625 143.3125 C149.38538956 145.46876148 144.13398936 146.02484309 138.6953125 146.75 C135.4708592 147.31349669 132.55080833 148.20132681 129.4765625 149.3125 C129.4765625 149.9725 129.4765625 150.6325 129.4765625 151.3125 C130.02828125 151.57675781 130.58 151.84101563 131.1484375 152.11328125 C142.32044017 157.86798732 155.95356241 166.73476065 160.9140625 178.8125 C161.0996875 179.6375 161.2853125 180.4625 161.4765625 181.3125 C160.4865625 180.9825 159.4965625 180.6525 158.4765625 180.3125 C158.4765625 179.6525 158.4765625 178.9925 158.4765625 178.3125 C157.9196875 178.04953125 157.3628125 177.7865625 156.7890625 177.515625 C154.22915586 176.18378168 151.88411229 174.65320254 149.4765625 173.0625 C145.55467201 170.52972119 141.63627579 168.36352626 137.4140625 166.375 C129.14438532 162.32608014 119.66329343 156.50573589 116.4765625 147.3125 C116.578125 145.2109375 116.578125 145.2109375 117.4765625 143.3125 C125.30092236 138.49508729 135.53971361 138.16469638 144.4765625 137.3125 C141.98098349 135.55590312 139.48042924 133.80721565 136.9765625 132.0625 C136.28046875 131.57136719 135.584375 131.08023438 134.8671875 130.57421875 C127.11059803 125.18769829 119.33322825 121.63705211 110.30078125 118.953125 C103.17509451 116.5273593 100.2706945 111.75829368 96.89013672 105.265625 C95.19313975 101.7650294 93.57329726 98.2344307 91.9765625 94.6875 C91.43386719 93.50542969 90.89117187 92.32335937 90.33203125 91.10546875 C87.0513337 83.92551732 83.9119608 76.69695126 80.87182617 69.4128418 C70.99844374 47.47371957 51.08597259 30.13495913 29.4765625 20.3125 C28.75210938 19.96574219 28.02765625 19.61898438 27.28125 19.26171875 C24.3071007 18.25514733 21.52001029 17.96243196 18.39892578 17.73120117 C11.53323666 17.2129369 6.60175732 16.70851192 1.3671875 11.91015625 C-4.03906181 7.34165219 -10.50883969 4.96279864 -17.5234375 5.3125 C-18.28890726 10.67078829 -16.58047149 13.21366966 -13.50976562 17.32519531 C-12.95740234 18.04288086 -12.40503906 18.76056641 -11.8359375 19.5 C-5.62110765 27.94681473 -1.51511057 35.76994108 1.4140625 45.875 C3.34709675 52.4677469 6.09495588 59.05850118 11.1328125 63.90625 C12.4765625 65.3125 12.4765625 65.3125 12.9140625 68.1875 C12.77557415 71.84205375 11.67446171 75.03993307 10.5390625 78.5 C6.5527945 90.99979751 6.2921318 104.5983215 12.0859375 116.6640625 C12.54484375 117.53804688 13.00375 118.41203125 13.4765625 119.3125 C13.4765625 119.9725 13.4765625 120.6325 13.4765625 121.3125 C14.7965625 121.6425 16.1165625 121.9725 17.4765625 122.3125 C17.4146875 121.054375 17.3528125 119.79625 17.2890625 118.5 C17.2890625 110.1422897 19.53272739 101.88734873 25.0390625 95.5 C26.4765625 94.3125 26.4765625 94.3125 28.4765625 94.3125 C28.9715625 97.7775 28.9715625 97.7775 29.4765625 101.3125 C30.1365625 101.3125 30.7965625 101.3125 31.4765625 101.3125 C31.77046875 102.13427734 31.77046875 102.13427734 32.0703125 102.97265625 C34.18407247 108.57594238 36.69288804 113.89322489 39.4765625 119.1875 C39.80849609 119.82953369 40.14042969 120.47156738 40.48242188 121.13305664 C42.42958361 124.77442123 44.49325374 127.48489629 47.4765625 130.3125 C48.56640625 132.09375 48.56640625 132.09375 49.4140625 133.8125 C51.23680311 137.17093546 53.35178597 139.0690707 56.4765625 141.3125 C57.4939498 142.29480498 58.50252367 143.28719597 59.4765625 144.3125 C59.1465625 144.9725 58.8165625 145.6325 58.4765625 146.3125 C53.09760609 142.99320728 48.5899913 138.99282635 43.9765625 134.6875 C42.87634766 133.69556641 42.87634766 133.69556641 41.75390625 132.68359375 C37.0948277 128.34123252 33.76091458 123.98230258 30.68554688 118.40087891 C29.52476758 116.18891217 29.52476758 116.18891217 27.4765625 114.3125 C27.37859375 115.04855469 27.280625 115.78460938 27.1796875 116.54296875 C25.56014943 127.11185078 25.56014943 127.11185078 21.4765625 130.3125 C18.01470512 131.0309987 15.81439737 131.01992654 12.64453125 129.34375 C5.1168089 123.70205831 2.06228555 114.30603084 0.765625 105.29296875 C-0.55552305 91.67086113 1.7323297 80.34760833 5.4765625 67.3125 C4.8165625 67.3125 4.1565625 67.3125 3.4765625 67.3125 C-0.893472 60.27490102 -4.77935466 53.43205077 -7.2734375 45.5 C-7.66789062 44.24574219 -8.06234375 42.99148437 -8.46875 41.69921875 C-8.81679688 40.58160156 -9.16484375 39.46398438 -9.5234375 38.3125 C-11.93457788 31.06737429 -16.17473097 25.43038507 -20.81494141 19.45117188 C-24.5234375 14.61694956 -24.5234375 14.61694956 -24.5234375 11.3125 C-25.1834375 10.9825 -25.8434375 10.6525 -26.5234375 10.3125 C-24.93312913 0.51954846 -24.93312913 0.51954846 -20.5234375 -2.6875 C-13.68244745 -4.96783002 -6.44169033 -2.71229066 0 0 Z " fill="#08587D" transform="translate(58.5234375,9.6875)"/>
<path d="M0 0 C4.09827408 3.13162464 5.65998101 7.18232456 7.5625 11.8125 C7.85318359 12.49892578 8.14386719 13.18535156 8.44335938 13.89257812 C9.0197907 15.25563832 9.59230266 16.62036345 10.16064453 17.98681641 C11.41741525 21.00116525 12.70974134 23.99985449 14 27 C15.27483211 24.16844969 16.54410981 21.33444112 17.8125 18.5 C18.16892578 17.70851562 18.52535156 16.91703125 18.89257812 16.1015625 C21.11581664 11.1247717 23.13761407 6.12303005 25 1 C26.5590978 0.74872793 28.12264016 0.52495542 29.6875 0.3125 C30.99267578 0.12107422 30.99267578 0.12107422 32.32421875 -0.07421875 C35.82884936 0.02298998 37.29575093 0.76731833 40 3 C40.45867463 5.64887068 40.58776379 7.65434237 40.48828125 10.29296875 C40.48120651 10.99899734 40.47413177 11.70502594 40.46684265 12.43244934 C40.4388753 14.68521584 40.37614334 16.93548648 40.3125 19.1875 C40.28741966 20.71545886 40.26460601 22.24345673 40.24414062 23.77148438 C40.18904244 27.51528306 40.10276286 31.25721859 40 35 C37.36 35 34.72 35 32 35 C31.67 27.08 31.34 19.16 31 11 C27.87688213 18.09974663 27.87688213 18.09974663 24.77832031 25.21020508 C24.38225586 26.09603271 23.98619141 26.98186035 23.578125 27.89453125 C23.18012695 28.80050049 22.78212891 29.70646973 22.37207031 30.63989258 C20.85597782 33.24773353 19.61410786 34.51245994 17 36 C13.54312497 35.87870614 11.03632268 35.69088179 8.125 33.75 C6.70964005 31.54832896 6.34801553 29.57531492 6 27 C5.34 27 4.68 27 4 27 C3.47599609 25.62714844 3.47599609 25.62714844 2.94140625 24.2265625 C2.48636719 23.03804687 2.03132812 21.84953125 1.5625 20.625 C1.11003906 19.44164062 0.65757813 18.25828125 0.19140625 17.0390625 C-0.89271912 14.13963807 -0.89271912 14.13963807 -2 12 C-2.33 19.92 -2.66 27.84 -3 36 C-6.96 35.505 -6.96 35.505 -11 35 C-11.90899509 28.74699343 -12.21429292 22.62818954 -12.25 16.3125 C-12.270625 15.38888672 -12.29125 14.46527344 -12.3125 13.51367188 C-12.34107799 8.55181904 -12.33855728 4.97871754 -9 1 C-5.90826248 -0.54586876 -3.40570448 -0.29359521 0 0 Z " fill="#0C5475" transform="translate(12,179)"/>
<path d="M0 0 C1.14533203 -0.020625 2.29066406 -0.04125 3.47070312 -0.0625 C4.57220703 -0.06765625 5.67371094 -0.0728125 6.80859375 -0.078125 C8.31957642 -0.09214355 8.31957642 -0.09214355 9.86108398 -0.10644531 C12.98822239 0.30617304 14.32357128 1.05825731 16.5625 3.25 C17.53957165 6.18121495 17.69134416 8.09146236 17.6953125 11.14453125 C17.69724609 12.57829102 17.69724609 12.57829102 17.69921875 14.04101562 C17.69535156 15.03810547 17.69148438 16.03519531 17.6875 17.0625 C17.69330078 18.54073242 17.69330078 18.54073242 17.69921875 20.04882812 C17.69269825 24.9033384 17.53172516 29.47310455 16.5625 34.25 C16.5625 34.91 16.5625 35.57 16.5625 36.25 C17.8825 36.58 19.2025 36.91 20.5625 37.25 C19.9025 38.57 19.2425 39.89 18.5625 41.25 C18.2325 40.59 17.9025 39.93 17.5625 39.25 C15.54427083 39.34765625 13.52604167 39.4453125 11.5078125 39.54296875 C10.86585938 39.44628906 10.22390625 39.34960938 9.5625 39.25 C8.9025 38.26 8.2425 37.27 7.5625 36.25 C4.98153792 35.6986061 4.98153792 35.6986061 2 35.625 C0.92621094 35.55925781 -0.14757812 35.49351562 -1.25390625 35.42578125 C-2.82978516 35.33876953 -2.82978516 35.33876953 -4.4375 35.25 C-6.1054612 35.11980568 -7.77246925 34.9759556 -9.4375 34.8125 C-10.118125 34.75191406 -10.79875 34.69132812 -11.5 34.62890625 C-13.7912924 34.18081076 -15.448167 33.47261091 -17.4375 32.25 C-20.54457593 27.58938611 -19.80608465 22.79441488 -19.8125 17.3125 C-19.83699219 16.21486328 -19.86148438 15.11722656 -19.88671875 13.98632812 C-19.89058594 12.92994141 -19.89445313 11.87355469 -19.8984375 10.78515625 C-19.90665527 9.819729 -19.91487305 8.85430176 -19.92333984 7.85961914 C-19.29820586 4.50180148 -18.0783428 3.34995089 -15.4375 1.25 C-10.43609372 -0.41713543 -5.23646775 0.02349509 0 0 Z M-10.4375 7.25 C-10.52419432 8.7387186 -10.54453494 10.231445 -10.53515625 11.72265625 C-10.53193359 12.62177734 -10.52871094 13.52089844 -10.52539062 14.44726562 C-10.51701172 15.39279297 -10.50863281 16.33832031 -10.5 17.3125 C-10.49548828 18.26189453 -10.49097656 19.21128906 -10.48632812 20.18945312 C-10.4745011 22.54303065 -10.45802025 24.89648477 -10.4375 27.25 C-7.9625 28.24 -7.9625 28.24 -5.4375 29.25 C-4.7775 27.93 -4.1175 26.61 -3.4375 25.25 C-4.0975 24.92 -4.7575 24.59 -5.4375 24.25 C-3.83417209 24.16878076 -2.22965974 24.11070866 -0.625 24.0625 C0.71498047 24.01029297 0.71498047 24.01029297 2.08203125 23.95703125 C5.02263665 24.30434685 5.66744854 25.08178796 7.5625 27.25 C8.2225 27.25 8.8825 27.25 9.5625 27.25 C9.5625 20.65 9.5625 14.05 9.5625 7.25 C5.82226998 6.00325666 2.3308914 6.10447245 -1.5625 6.125 C-2.30371094 6.12113281 -3.04492188 6.11726562 -3.80859375 6.11328125 C-7.41979969 5.78253342 -7.41979969 5.78253342 -10.4375 7.25 Z " fill="#E08D0C" transform="translate(153.4375,179.75)"/>
<path d="M0 0 C0.33 5.94 0.66 11.88 1 18 C4.16965142 19.58482571 7.63744541 19.37852823 11.125 19.5625 C13.72375 19.706875 16.3225 19.85125 19 20 C19 13.73 19 7.46 19 1 C22.20062687 -0.60031344 24.72271806 0.96826309 28 2 C28.05819473 6.06243957 28.09366215 10.12477146 28.125 14.1875 C28.14175781 15.33798828 28.15851563 16.48847656 28.17578125 17.67382812 C28.18544922 19.34155273 28.18544922 19.34155273 28.1953125 21.04296875 C28.21102295 22.57473755 28.21102295 22.57473755 28.22705078 24.13745117 C27.98673738 27.16720883 27.35531732 29.28936537 26 32 C21.95321152 35.40742598 17.71228738 35.53185747 12.625 35.6875 C11.89539063 35.72166016 11.16578125 35.75582031 10.4140625 35.79101562 C-2.4207737 36.35253971 -2.4207737 36.35253971 -8 35 C-8.33 33.35 -8.66 31.7 -9 30 C-5.82212459 28.9407082 -3.57411057 28.88541061 -0.23828125 28.90234375 C0.87998047 28.90556641 1.99824219 28.90878906 3.15039062 28.91210938 C4.31763672 28.92048828 5.48488281 28.92886719 6.6875 28.9375 C7.86634766 28.94201172 9.04519531 28.94652344 10.25976562 28.95117188 C13.17322789 28.96296727 16.08658863 28.9794273 19 29 C19 27.68 19 26.36 19 25 C17.69804688 25.03480469 16.39609375 25.06960937 15.0546875 25.10546875 C13.32813796 25.13361901 11.60157439 25.16091784 9.875 25.1875 C9.0190625 25.21263672 8.163125 25.23777344 7.28125 25.26367188 C2.06658803 25.32384105 -1.4811298 24.90699905 -6 22 C-8 20 -8 20 -8.22705078 18.02880859 C-8.21657715 17.24328613 -8.20610352 16.45776367 -8.1953125 15.6484375 C-8.18886719 14.79765625 -8.18242188 13.946875 -8.17578125 13.0703125 C-8.15902344 12.18085938 -8.14226563 11.29140625 -8.125 10.375 C-8.11597656 9.4778125 -8.10695312 8.580625 -8.09765625 7.65625 C-8.0740497 5.43723414 -8.0411231 3.21874923 -8 1 C-1.125 0 -1.125 0 0 0 Z " fill="#08587E" transform="translate(65,189)"/>
<path d="M0 0 C0.495 3.465 0.495 3.465 1 7 C-11.375 7.495 -11.375 7.495 -24 8 C-24 10.31 -24 12.62 -24 15 C-22.85402344 14.95359375 -21.70804688 14.9071875 -20.52734375 14.859375 C-18.99742209 14.82183091 -17.46747199 14.78543359 -15.9375 14.75 C-15.18533203 14.71648437 -14.43316406 14.68296875 -13.65820312 14.6484375 C-7.95824753 14.54973697 -4.59538723 15.54898935 0 19 C1.37045296 21.96931476 1.31200657 24.76437632 1 28 C-0.56181319 31.670261 -1.65910596 32.7727373 -5 35 C-13.79426243 36.21221303 -24.32965954 37.47163552 -33 35 C-33 33.02 -33 31.04 -33 29 C-25.08 28.67 -17.16 28.34 -9 28 C-9 26.02 -9 24.04 -9 22 C-9.99 21.96261719 -10.98 21.92523438 -12 21.88671875 C-26.71156098 21.21454137 -26.71156098 21.21454137 -32 18 C-33.98546615 14.38221385 -34.28180823 11.23995623 -33.375 7.25 C-31.79851715 4.67030078 -30.32745215 2.94233417 -28 1 C-25.29858398 0.45410156 -25.29858398 0.45410156 -22.24609375 0.390625 C-21.14458984 0.35839844 -20.04308594 0.32617188 -18.90820312 0.29296875 C-17.76287109 0.27878906 -16.61753906 0.26460937 -15.4375 0.25 C-14.28830078 0.22035156 -13.13910156 0.19070312 -11.95507812 0.16015625 C-7.96944881 0.06209156 -3.98682104 0 0 0 Z " fill="#DD8E10" transform="translate(130,179)"/>
<path d="M0 0 C2.33294775 -0.04241723 4.66702567 -0.04092937 7 0 C8.80394875 1.80394875 8.23705789 4.56677799 8.31640625 7.00390625 C8.37924805 8.82631836 8.37924805 8.82631836 8.44335938 10.68554688 C8.48267578 11.96494141 8.52199219 13.24433594 8.5625 14.5625 C8.60568359 15.84576172 8.64886719 17.12902344 8.69335938 18.45117188 C8.79984719 21.63397445 8.90046421 24.81697243 9 28 C16.59 28.33 24.18 28.66 32 29 C32.66 30.98 33.32 32.96 34 35 C12.94703512 37.02571483 12.94703512 37.02571483 5 35 C1.88094953 32.42339309 0.2818632 30.8455896 -1 27 C-1.09267799 25.4435344 -1.13068304 23.88343966 -1.1328125 22.32421875 C-1.13410156 21.41349609 -1.13539063 20.50277344 -1.13671875 19.56445312 C-1.13285156 18.61505859 -1.12898437 17.66566406 -1.125 16.6875 C-1.12886719 15.74970703 -1.13273438 14.81191406 -1.13671875 13.84570312 C-1.13005518 9.11790095 -0.98111446 4.64861373 0 0 Z " fill="#D28E29" transform="translate(175,179)"/>
<path d="M0 0 C2.33944736 0.28730055 4.6739143 0.61936779 7 1 C8.16223397 6.20773564 8.18384485 11.18541824 8.1875 16.5 C8.19974609 17.43714844 8.21199219 18.37429687 8.22460938 19.33984375 C8.24408995 28.49571539 8.24408995 28.49571539 6 32 C1.95321152 35.40742598 -2.28771262 35.53185747 -7.375 35.6875 C-8.10460937 35.72166016 -8.83421875 35.75582031 -9.5859375 35.79101562 C-22.4207737 36.35253971 -22.4207737 36.35253971 -28 35 C-28.33 33.35 -28.66 31.7 -29 30 C-25.82212459 28.9407082 -23.57411057 28.88541061 -20.23828125 28.90234375 C-19.12001953 28.90556641 -18.00175781 28.90878906 -16.84960938 28.91210938 C-15.68236328 28.92048828 -14.51511719 28.92886719 -13.3125 28.9375 C-12.13365234 28.94201172 -10.95480469 28.94652344 -9.74023438 28.95117188 C-6.82677211 28.96296727 -3.91341137 28.9794273 -1 29 C-0.67 28.01 -0.34 27.02 0 26 C0 27.32 0 28.64 0 30 C1.65 30.33 3.3 30.66 5 31 C4.814375 30.195625 4.62875 29.39125 4.4375 28.5625 C4.293125 27.716875 4.14875 26.87125 4 26 C4.495 25.505 4.495 25.505 5 25 C5.15740605 23.29436222 5.25093392 21.58272756 5.31640625 19.87109375 C5.37924805 18.31938477 5.37924805 18.31938477 5.44335938 16.73632812 C5.48267578 15.64771484 5.52199219 14.55910156 5.5625 13.4375 C5.62727539 11.7987793 5.62727539 11.7987793 5.69335938 10.12695312 C5.79982068 7.41810436 5.90183516 4.70916008 6 2 C4.02 2 2.04 2 0 2 C0 8.6 0 15.2 0 22 C-6.27 21.67 -12.54 21.34 -19 21 C-19 20.01 -19 19.02 -19 18 C-18.34 18.33 -17.68 18.66 -17 19 C-14.28737884 19.2322646 -11.59226874 19.41936235 -8.875 19.5625 C-8.12089844 19.60568359 -7.36679688 19.64886719 -6.58984375 19.69335938 C-4.72678112 19.7994832 -2.86341476 19.90025001 -1 20 C-1.00785522 19.14450562 -1.00785522 19.14450562 -1.01586914 18.27172852 C-1.03658221 15.70199677 -1.0496419 13.13228253 -1.0625 10.5625 C-1.07087891 9.66466797 -1.07925781 8.76683594 -1.08789062 7.84179688 C-1.09272461 6.56079102 -1.09272461 6.56079102 -1.09765625 5.25390625 C-1.10551147 4.06776733 -1.10551147 4.06776733 -1.11352539 2.85766602 C-1 1 -1 1 0 0 Z " fill="#14556E" transform="translate(85,189)"/>
<path d="M0 0 C2.97 0.33 5.94 0.66 9 1 C10.898518 7.40373134 11.30565535 13.21490947 11.25 19.875 C11.25773437 20.82375 11.26546875 21.7725 11.2734375 22.75 C11.27085938 23.65492188 11.26828125 24.55984375 11.265625 25.4921875 C11.26336914 26.31058105 11.26111328 27.12897461 11.25878906 27.97216797 C11 30 11 30 9 32 C7.68 31.67 6.36 31.34 5 31 C4.67 23.08 4.34 15.16 4 7 C3.34 7 2.68 7 2 7 C1.34 8.65 0.68 10.3 0 12 C-0.66 12 -1.32 12 -2 12 C-2 11.01 -2 10.02 -2 9 C-2.66 9.66 -3.32 10.32 -4 11 C-4 6.61112889 -2.03105677 3.87170197 0 0 Z " fill="#025F89" transform="translate(40,181)"/>
<path d="M0 0 C3.3681286 4.11310409 5.57204549 8.79013846 7.95117188 13.51171875 C9.91515145 17.3034481 11.85263335 20.05016682 15 23 C16.08984375 24.78125 16.08984375 24.78125 16.9375 26.5 C18.76024061 29.85843546 20.87522347 31.7565707 24 34 C25.0173873 34.98230498 26.02596117 35.97469597 27 37 C26.67 37.66 26.34 38.32 26 39 C20.62104359 35.68070728 16.1134288 31.68032635 11.5 27.375 C10.76652344 26.71371094 10.03304687 26.05242187 9.27734375 25.37109375 C4.08193993 20.52886586 0.11344381 15.41435413 -3 9 C-3 8.34 -3 7.68 -3 7 C-2.01 7 -1.02 7 0 7 C-0.185625 6.030625 -0.37125 5.06125 -0.5625 4.0625 C-0.706875 3.051875 -0.85125 2.04125 -1 1 C-0.67 0.67 -0.34 0.34 0 0 Z " fill="#08597E" transform="translate(91,117)"/>
<path d="M0 0 C4.875 0.875 4.875 0.875 6 2 C6.07205511 3.68608966 6.08386068 5.37500659 6.0625 7.0625 C6.05347656 7.98160156 6.04445312 8.90070313 6.03515625 9.84765625 C6.02355469 10.55792969 6.01195312 11.26820313 6 12 C5.01 12 4.02 12 3 12 C3 12.66 3 13.32 3 14 C2.01 14 1.02 14 0 14 C0 14.66 0 15.32 0 16 C-7.92 16 -15.84 16 -24 16 C-24 14.68 -24 13.36 -24 12 C-16.74 12 -9.48 12 -2 12 C-1.67 8.7 -1.34 5.4 -1 2 C-0.67 1.34 -0.34 0.68 0 0 Z " fill="#E28C05" transform="translate(123,197)"/>
<path d="M0 0 C1.32 0 2.64 0 4 0 C4 8.58 4 17.16 4 26 C5.32 26.66 6.64 27.32 8 28 C7.67 28.33 7.34 28.66 7 29 C4.66055264 28.71269945 2.3260857 28.38063221 0 28 C-2.07422976 19.96235969 -2.2144997 12.27015524 -2 4 C-1.34 4 -0.68 4 0 4 C0 2.68 0 1.36 0 0 Z " fill="#E28D04" transform="translate(177,182)"/>
<path d="M0 0 C1.5 1.3125 1.5 1.3125 3 3 C3 3.99 3 4.98 3 6 C3.66 6 4.32 6 5 6 C4.67 6.99 4.34 7.98 4 9 C0.72865184 10.2870878 -2.83391401 10.27109187 -6.3125 10.5 C-10.9236235 10.82603904 -15.43353634 11.30510336 -20 12 C-20.99 12 -21.98 12 -23 12 C-21.63016497 8.83884224 -21.0109362 8.0072908 -18 6 C-16.09887695 5.68115234 -16.09887695 5.68115234 -13.98828125 5.5859375 C-13.23095703 5.54726562 -12.47363281 5.50859375 -11.69335938 5.46875 C-10.90767578 5.4378125 -10.12199219 5.406875 -9.3125 5.375 C-8.51521484 5.33632812 -7.71792969 5.29765625 -6.89648438 5.2578125 C-4.93136525 5.16367506 -2.9657146 5.08075368 -1 5 C-0.67 3.35 -0.34 1.7 0 0 Z " fill="#035F88" transform="translate(206,144)"/>
<path d="M0 0 C1.65 0 3.3 0 5 0 C5.02905924 3.7499837 5.04681874 7.49993837 5.0625 11.25 C5.07087891 12.31347656 5.07925781 13.37695312 5.08789062 14.47265625 C5.09111328 15.49746094 5.09433594 16.52226562 5.09765625 17.578125 C5.10289307 18.52075195 5.10812988 19.46337891 5.11352539 20.43457031 C5.00931807 22.78943161 4.62487918 24.74017988 4 27 C4 27.66 4 28.32 4 29 C2.35 28.67 0.7 28.34 -1 28 C-0.34 26.02 0.32 24.04 1 22 C0.67 21.67 0.34 21.34 0 21 C-0.08685603 19.43827255 -0.10702219 17.87270656 -0.09765625 16.30859375 C-0.09443359 15.36435547 -0.09121094 14.42011719 -0.08789062 13.44726562 C-0.07951172 12.45404297 -0.07113281 11.46082031 -0.0625 10.4375 C-0.05798828 9.44041016 -0.05347656 8.44332031 -0.04882812 7.41601562 C-0.03700007 4.94395151 -0.02051849 2.47200482 0 0 Z " fill="#02608B" transform="translate(86,191)"/>
<path d="M0 0 C2.31 0.33 4.62 0.66 7 1 C6.01 1.495 6.01 1.495 5 2 C5.33 3.65 5.66 5.3 6 7 C6.99 7.33 7.98 7.66 9 8 C10.6875 11.0625 10.6875 11.0625 12 14 C13.32 14 14.64 14 16 14 C15.42655063 11.13275314 15.1385485 10.1385485 13 8 C13.375 5.875 13.375 5.875 14 4 C15.18348236 5.69672726 16.34616049 7.40797692 17.5 9.125 C18.1496875 10.07632813 18.799375 11.02765625 19.46875 12.0078125 C21.15873351 15.31017823 21.30370104 17.34474108 21 21 C20.01 20.34 19.02 19.68 18 19 C18 18.34 18 17.68 18 17 C17.34 17 16.68 17 16 17 C16.93315058 22.99180898 18.14691328 27.98603972 21.29296875 33.2109375 C22.19566854 35.49511709 21.78796315 36.72143141 21 39 C20.6596875 38.2471875 20.319375 37.494375 19.96875 36.71875 C18.33377655 33.13572308 16.67489187 29.56449108 15 26 C14.68434082 25.32646484 14.36868164 24.65292969 14.04345703 23.95898438 C10.3983468 16.24249914 6.81904866 9.05499697 1.25 2.50390625 C0 1 0 1 0 0 Z " fill="#0C5576" transform="translate(127,59)"/>
<path d="M0 0 C0.77601562 0.07863281 1.55203125 0.15726563 2.3515625 0.23828125 C4.375 0.6875 4.375 0.6875 6.375 2.6875 C6.54988254 5.12494897 6.60677405 7.4468608 6.5703125 9.8828125 C6.5674826 10.59025604 6.56465271 11.29769958 6.56173706 12.02658081 C6.55053137 14.2887251 6.52542679 16.55047515 6.5 18.8125 C6.48997067 20.34504637 6.48084474 21.87759894 6.47265625 23.41015625 C6.45059086 27.16942301 6.41605896 30.92839464 6.375 34.6875 C3.735 34.6875 1.095 34.6875 -1.625 34.6875 C-1.625 26.1075 -1.625 17.5275 -1.625 8.6875 C-1.295 8.6875 -0.965 8.6875 -0.625 8.6875 C-0.625 16.6075 -0.625 24.5275 -0.625 32.6875 C1.85 32.1925 1.85 32.1925 4.375 31.6875 C4.40437438 28.35418561 4.42192334 25.02090517 4.4375 21.6875 C4.44587891 20.75292969 4.45425781 19.81835938 4.46289062 18.85546875 C4.48208892 13.36475599 4.1884193 8.11883519 3.375 2.6875 C0.405 2.3575 -2.565 2.0275 -5.625 1.6875 C-5.8725 2.368125 -6.12 3.04875 -6.375 3.75 C-7.86697908 7.25615083 -9.69335511 10.40370368 -11.625 13.6875 C-12.625 11.6875 -12.625 11.6875 -11.98828125 9.12109375 C-11.64152344 8.13238281 -11.29476562 7.14367187 -10.9375 6.125 C-10.60363281 5.13371094 -10.26976562 4.14242187 -9.92578125 3.12109375 C-8.625 0.6875 -8.625 0.6875 -6.76953125 -0.171875 C-4.44883897 -0.32405154 -2.31212792 -0.25905112 0 0 Z " fill="#0F5273" transform="translate(45.625,179.3125)"/>
<path d="M0 0 C6.82625094 7.18628527 9 16.30845531 9 26 C7.1875 25.5 7.1875 25.5 5 24 C2.77313274 19.85374088 1.55648626 15.73081322 2 11 C1.34 11 0.68 11 0 11 C-2.32019297 7.80973467 -4.34643078 4.58273331 -6 1 C-4 0 -4 0 0 0 Z " fill="#035E8B" transform="translate(47,29)"/>
<path d="M0 0 C7.59 0 15.18 0 23 0 C23 0.66 23 1.32 23 2 C24.32 1.67 25.64 1.34 27 1 C27.33 2.32 27.66 3.64 28 5 C19.09 5 10.18 5 1 5 C1 4.34 1 3.68 1 3 C0.34 3 -0.32 3 -1 3 C-0.67 2.01 -0.34 1.02 0 0 Z " fill="#06597D" transform="translate(57,218)"/>
<path d="M0 0 C0.66 0 1.32 0 2 0 C2.33 1.32 2.66 2.64 3 4 C2.34 4 1.68 4 1 4 C1 12.25 1 20.5 1 29 C-0.65 29.33 -2.3 29.66 -4 30 C-3.62875 29.4225 -3.2575 28.845 -2.875 28.25 C-1.70685522 26.02952448 -1.70685522 26.02952448 -2.875 24 C-3.24625 23.34 -3.6175 22.68 -4 22 C-4 20.68 -4 19.36 -4 18 C-4.66 17.67 -5.32 17.34 -6 17 C-6 16.01 -6 15.02 -6 14 C-5.01 14 -4.02 14 -3 14 C-2.95101563 13.32453125 -2.90203125 12.6490625 -2.8515625 11.953125 C-2.77679688 11.06109375 -2.70203125 10.1690625 -2.625 9.25 C-2.55539062 8.36828125 -2.48578125 7.4865625 -2.4140625 6.578125 C-2.00149945 4.00933618 -1.28839043 2.24158985 0 0 Z " fill="#036089" transform="translate(6,182)"/>
<path d="M0 0 C4.875 2.625 4.875 2.625 6 6 C6.08178114 7.70016844 6.10749501 9.40336297 6.09765625 11.10546875 C6.09443359 12.08837891 6.09121094 13.07128906 6.08789062 14.08398438 C6.07951172 15.10814453 6.07113281 16.13230469 6.0625 17.1875 C6.05798828 18.22326172 6.05347656 19.25902344 6.04882812 20.32617188 C6.0370401 22.88417266 6.02058515 25.44205733 6 28 C5.67 28 5.34 28 5 28 C4.67 21.07 4.34 14.14 4 7 C3.34 6.67 2.68 6.34 2 6 C2 6.66 2 7.32 2 8 C1.34 8 0.68 8 0 8 C0.01160156 8.7734375 0.02320313 9.546875 0.03515625 10.34375 C0.08709845 16.33936364 -0.08815844 22.07302983 -1 28 C-2.32 28 -3.64 28 -5 28 C-4.67 27.34 -4.34 26.68 -4 26 C-3.34 26.33 -2.68 26.66 -2 27 C-2 20.4 -2 13.8 -2 7 C-8.27 6.67 -14.54 6.34 -21 6 C-21 5.67 -21 5.34 -21 5 C-14.4 5 -7.8 5 -1 5 C-1.33 4.01 -1.66 3.02 -2 2 C-1.34 2 -0.68 2 0 2 C0 1.34 0 0.68 0 0 Z " fill="#D38D29" transform="translate(165,180)"/>
<path d="M0 0 C0.33 0 0.66 0 1 0 C1.33 2.64 1.66 5.28 2 8 C2.5775 7.67 3.155 7.34 3.75 7 C6 6 6 6 10 6 C9.67 7.32 9.34 8.64 9 10 C8.67 10 8.34 10 8 10 C7.90203125 10.74765625 7.8040625 11.4953125 7.703125 12.265625 C6.46655232 20.40994854 6.46655232 20.40994854 3.875 23.6875 C3.25625 24.120625 2.6375 24.55375 2 25 C2.33 24.2575 2.66 23.515 3 22.75 C4.22782871 19.86116688 4.22782871 19.86116688 4 16 C3.01 15.67 2.02 15.34 1 15 C0.67 16.32 0.34 17.64 0 19 C-1.32 19.33 -2.64 19.66 -4 20 C-4 19.34 -4 18.68 -4 18 C-3.34 18 -2.68 18 -2 18 C-2.04125 16.700625 -2.0825 15.40125 -2.125 14.0625 C-2.14055052 9.16408698 -1.2492718 4.71823189 0 0 Z " fill="#075A7F" transform="translate(78,114)"/>
<path d="M0 0 C2.97851479 0.97022236 5.53087965 2.04960242 8 4 C9.25138452 7.04882773 9.3663589 9.74347647 9 13 C7.43818681 16.670261 6.34089404 17.7727373 3 20 C-5.79426243 21.21221303 -16.32965954 22.47163552 -25 20 C-25 18.02 -25 16.04 -25 14 C-17.08 14 -9.16 14 -1 14 C-1 14.33 -1 14.66 -1 15 C-8.26 15 -15.52 15 -23 15 C-23 16.32 -23 17.64 -23 19 C-15.08 19 -7.16 19 1 19 C1 18.34 1 17.68 1 17 C1.99 17 2.98 17 4 17 C4 16.34 4 15.68 4 15 C4.99 15 5.98 15 7 15 C6.98714943 11.5753227 6.85174772 8.3266373 6 5 C3.11320156 2.76113268 3.11320156 2.76113268 0 2 C0 1.34 0 0.68 0 0 Z " fill="#CB8D2E" transform="translate(122,194)"/>
<path d="M0 0 C0.226875 0.598125 0.45375 1.19625 0.6875 1.8125 C2.33307014 4.5551169 4.27035797 5.41968093 7 7 C7 7.66 7 8.32 7 9 C7.66 9 8.32 9 9 9 C9.28875 9.78375 9.5775 10.5675 9.875 11.375 C10.84912254 14.09671632 10.84912254 14.09671632 13 16 C12.625 18.625 12.625 18.625 12 21 C9.6875 20.375 9.6875 20.375 7 19 C5.375 16.0625 5.375 16.0625 4 13 C3.46375 12.46375 2.9275 11.9275 2.375 11.375 C0.6831654 9.6831654 0.40058439 8.32338946 0 6 C-1.32 5.67 -2.64 5.34 -4 5 C-4 4.01 -4 3.02 -4 2 C-2.68 1.34 -1.36 0.68 0 0 Z " fill="#03608B" transform="translate(131,54)"/>
<path d="M0 0 C1.8871875 0.061875 1.8871875 0.061875 3.8125 0.125 C4.993433 3.667799 5.08278374 6.40859861 4.8125 10.125 C0.6329355 12.91137633 -1.33418677 11.92062512 -6.1875 11.125 C-6.5175 8.155 -6.8475 5.185 -7.1875 2.125 C-4.09861478 0.06574319 -3.47814073 -0.1140374 0 0 Z M-5.1875 4.125 C-4.1875 8.125 -4.1875 8.125 -4.1875 8.125 Z M0.8125 6.125 C1.8125 8.125 1.8125 8.125 1.8125 8.125 Z M-2.1875 7.125 C-2.1875 8.115 -2.1875 9.105 -2.1875 10.125 C-1.5275 9.795 -0.8675 9.465 -0.1875 9.125 C-0.8475 8.465 -1.5075 7.805 -2.1875 7.125 Z " fill="#D39433" transform="translate(217.1875,202.875)"/>
<path d="M0 0 C2.31 0.33 4.62 0.66 7 1 C7 1.99 7 2.98 7 4 C7.5775 4.226875 8.155 4.45375 8.75 4.6875 C12.26442764 6.73758279 14.49189171 9.43333277 15.75 13.3125 C15.87375 14.1478125 15.87375 14.1478125 16 15 C11.70232629 15 8.62542416 13.21469426 5 11 C3.125 9 3.125 9 2 7 C1.608125 6.319375 1.21625 5.63875 0.8125 4.9375 C0 3 0 3 0 0 Z " fill="#046089" transform="translate(103,31)"/>
<path d="M0 0 C6.6 0 13.2 0 20 0 C20 1.65 20 3.3 20 5 C12.08 5 4.16 5 -4 5 C-4 4.67 -4 4.34 -4 4 C-2.35 4 -0.7 4 1 4 C0.67 2.68 0.34 1.36 0 0 Z " fill="#D98A15" transform="translate(187,208)"/>
<path d="M0 0 C3.32971309 4.22267071 5.46008194 8.7851101 7.75 13.625 C8.17410156 14.49640625 8.59820312 15.3678125 9.03515625 16.265625 C9.43089844 17.09835938 9.82664063 17.93109375 10.234375 18.7890625 C10.77916504 19.92915771 10.77916504 19.92915771 11.33496094 21.09228516 C11.55442383 21.72183105 11.77388672 22.35137695 12 23 C11.67 23.66 11.34 24.32 11 25 C10.4225 24.030625 9.845 23.06125 9.25 22.0625 C7.35207138 18.90530708 7.35207138 18.90530708 4.75 18.125 C4.1725 18.08375 3.595 18.0425 3 18 C3.33 19.98 3.66 21.96 4 24 C3.34 24 2.68 24 2 24 C1.32845067 22.71086513 0.66291141 21.41859796 0 20.125 C-0.37125 19.40570313 -0.7425 18.68640625 -1.125 17.9453125 C-2 16 -2 16 -2 14 C-1.01 13.67 -0.02 13.34 1 13 C2.08416595 9.0970026 1.92020735 7.50155458 0 4 C0 2.68 0 1.36 0 0 Z " fill="#09597A" transform="translate(154,91)"/>
<path d="M0 0 C7.26 0 14.52 0 22 0 C21.67 1.32 21.34 2.64 21 4 C10.11 4.495 10.11 4.495 -1 5 C-0.67 3.35 -0.34 1.7 0 0 Z " fill="#E38B03" transform="translate(143,181)"/>
<path d="M0 0 C4.3590077 3.48720616 4.94552183 6.72760915 6 12 C8.97 12.495 8.97 12.495 12 13 C12 13.99 12 14.98 12 16 C5.72413793 16.36206897 5.72413793 16.36206897 2.75 14.875 C0.42893564 12.38814532 -0.81029789 10.19341092 -2 7 C-1.59183673 1.59183673 -1.59183673 1.59183673 0 0 Z " fill="#035E8A" transform="translate(19,197)"/>
<path d="M0 0 C0.66 0 1.32 0 2 0 C2 0.66 2 1.32 2 2 C2.66 2 3.32 2 4 2 C5.02611949 3.65071396 6.02308143 5.31970006 7 7 C7.53367187 7.45375 8.06734375 7.9075 8.6171875 8.375 C10 10 10 10 10.07421875 12.26171875 C9.88279297 13.46248047 9.88279297 13.46248047 9.6875 14.6875 C9.50767578 15.89986328 9.50767578 15.89986328 9.32421875 17.13671875 C9.21722656 17.75160156 9.11023438 18.36648437 9 19 C8.01 19.33 7.02 19.66 6 20 C5.67 20.99 5.34 21.98 5 23 C4.34 22.67 3.68 22.34 3 22 C3.165 21.319375 3.33 20.63875 3.5 19.9375 C4.07089059 16.5835178 4.06659023 13.39610195 4 10 C3.34 9.67 2.68 9.34 2 9 C1.3671875 6.93359375 1.3671875 6.93359375 0.875 4.4375 C0.70742188 3.61121094 0.53984375 2.78492187 0.3671875 1.93359375 C0.24601562 1.29550781 0.12484375 0.65742187 0 0 Z " fill="#035F8A" transform="translate(60,67)"/>
<path d="M0 0 C2.4375 2 2.4375 2 4 4 C3.67 4.66 3.34 5.32 3 6 C2.67 5.01 2.34 4.02 2 3 C-0.86724686 3.57344937 -1.8614515 3.8614515 -4 6 C-4 5.01 -4 4.02 -4 3 C-4.66 3 -5.32 3 -6 3 C-6.79502868 6.06551599 -7.44932202 9.14323156 -8.0625 12.25 C-8.32740234 13.58804688 -8.32740234 13.58804688 -8.59765625 14.953125 C-8.73042969 15.62859375 -8.86320313 16.3040625 -9 17 C-9.66 17 -10.32 17 -11 17 C-12.44495384 7.05941391 -12.44495384 7.05941391 -10.6875 2.875 C-7.50687747 -0.65902503 -4.60103319 -0.39664079 0 0 Z " fill="#09577F" transform="translate(12,179)"/>
<path d="M0 0 C2.69545069 2.92007158 3.16786859 4.49519233 3.25 8.4375 C2.3125 10.8125 2.3125 10.8125 1.25 12.4375 C-0.07 12.1075 -1.39 11.7775 -2.75 11.4375 C-2.75 9.7875 -2.75 8.1375 -2.75 6.4375 C-3.41 6.1075 -4.07 5.7775 -4.75 5.4375 C-7.75 1.86057692 -7.75 1.86057692 -7.75 -0.5625 C-4.34366669 -1.73038571 -3.19557405 -1.81566707 0 0 Z " fill="#085D82" transform="translate(77.75,38.5625)"/>
<path d="M0 0 C1.02158203 0.00644531 2.04316406 0.01289063 3.09570312 0.01953125 C4.15080078 0.03628906 5.20589844 0.05304688 6.29296875 0.0703125 C7.36740234 0.07933594 8.44183594 0.08835938 9.54882812 0.09765625 C12.19293729 0.12115944 14.83658747 0.15401675 17.48046875 0.1953125 C17.48046875 0.5253125 17.48046875 0.8553125 17.48046875 1.1953125 C7.08546875 1.6903125 7.08546875 1.6903125 -3.51953125 2.1953125 C-3.84953125 3.5153125 -4.17953125 4.8353125 -4.51953125 6.1953125 C-3.85953125 6.5253125 -3.19953125 6.8553125 -2.51953125 7.1953125 C-2.84953125 13.7953125 -3.17953125 20.3953125 -3.51953125 27.1953125 C-3.84953125 27.1953125 -4.17953125 27.1953125 -4.51953125 27.1953125 C-5.17953125 19.9353125 -5.83953125 12.6753125 -6.51953125 5.1953125 C-8.16953125 5.1953125 -9.81953125 5.1953125 -11.51953125 5.1953125 C-10.51953125 2.1953125 -10.51953125 2.1953125 -8.30200195 1.02001953 C-5.37409828 0.15220707 -3.04682114 -0.03404269 0 0 Z " fill="#D08C25" transform="translate(146.51953125,179.8046875)"/>
<path d="M0 0 C0.66 0 1.32 0 2 0 C2 6.93 2 13.86 2 21 C0.68 21 -0.64 21 -2 21 C-3.31909709 14.5510809 -2.69508823 8.51244208 -2 2 C-1.34 2 -0.68 2 0 2 C0 1.34 0 0.68 0 0 Z " fill="#E58D02" transform="translate(167,186)"/>
<path d="M0 0 C3.84744051 1.28248017 4.82619087 2.59436569 7 6 C7.61048751 8.70215783 7.81154825 11.22033673 8 14 C6.68 14.33 5.36 14.66 4 15 C4 14.34 4 13.68 4 13 C3.34 13 2.68 13 2 13 C1.814375 12.071875 1.814375 12.071875 1.625 11.125 C1.12802644 8.80879168 1.12802644 8.80879168 -1 7 C-1.75 4.5 -1.75 4.5 -2 2 C-1.34 1.34 -0.68 0.68 0 0 Z " fill="#075B81" transform="translate(11,181)"/>
<path d="M0 0 C11.6291191 6.47033694 24.45044339 17.76832422 30 30 C28 30 28 30 26.5625 28.625 C26.046875 28.08875 25.53125 27.5525 25 27 C24.01 26.34 23.02 25.68 22 25 C21.7525 24.2575 21.505 23.515 21.25 22.75 C19.6983208 19.33630575 17.67498132 17.79938964 14.80078125 15.47265625 C12.36118984 13.47758909 10.1979012 11.2557407 8 9 C5.39033952 6.32820474 3.11144669 4.07429779 0 2 C0 1.34 0 0.68 0 0 Z " fill="#0B5579" transform="translate(110,33)"/>
<path d="M0 0 C0.474375 0.639375 0.94875 1.27875 1.4375 1.9375 C2.91948199 4.30445393 2.91948199 4.30445393 6.125 5 C7.07375 5.33 8.0225 5.66 9 6 C9.875 8.125 9.875 8.125 10 10 C4.09403861 9.57814561 -1.17156272 8.66046118 -6 5 C-7 2.25 -7 2.25 -7 0 C-4.24438552 -1.37780724 -2.90228766 -0.92023755 0 0 Z " fill="#03608C" transform="translate(57,10)"/>
<path d="M0 0 C0.66 0.33 1.32 0.66 2 1 C3.21883656 8.31301936 3.10289063 15.60330657 3 23 C2.01 23 1.02 23 0 23 C-0.77234239 20.25500157 -1.12807679 17.80980733 -1.1328125 14.9609375 C-1.13410156 14.21585938 -1.13539062 13.47078125 -1.13671875 12.703125 C-1.13285156 11.93484375 -1.12898438 11.1665625 -1.125 10.375 C-1.12886719 9.59898438 -1.13273437 8.82296875 -1.13671875 8.0234375 C-1.12670133 2.25340266 -1.12670133 2.25340266 0 0 Z " fill="#025F89" transform="translate(62,100)"/>
<path d="M0 0 C0.33 0 0.66 0 1 0 C1.495 2.97 1.495 2.97 2 6 C-2.85007355 9.83102176 -6.32860808 10.63117098 -12.4375 10.75 C-13.16259766 10.77964844 -13.88769531 10.80929688 -14.63476562 10.83984375 C-27.52858737 11.32640306 -27.52858737 11.32640306 -33 10 C-32.67 9.01 -32.34 8.02 -32 7 C-32 7.66 -32 8.32 -32 9 C-23.09 9 -14.18 9 -5 9 C-6.72226496 5.75150023 -6.72226496 5.75150023 -10 5 C-9.360625 4.896875 -8.72125 4.79375 -8.0625 4.6875 C-7.0415625 4.3471875 -7.0415625 4.3471875 -6 4 C-5.67 3.01 -5.34 2.02 -5 1 C-5 2.32 -5 3.64 -5 5 C-2.525 5.495 -2.525 5.495 0 6 C-0.185625 5.195625 -0.37125 4.39125 -0.5625 3.5625 C-0.706875 2.716875 -0.85125 1.87125 -1 1 C-0.67 0.67 -0.34 0.34 0 0 Z " fill="#0B4E6C" transform="translate(90,214)"/>
<path d="M0 0 C3.14664121 2.18516751 5.23504047 4.13645007 7 7.5 C8.78673382 10.88539039 10.86762266 12.7511137 14 15 C15.0173873 15.98230498 16.02596117 16.97469597 17 18 C16.67 18.66 16.34 19.32 16 20 C11.22787265 17.01198105 7.21015987 13.61334123 3.125 9.75 C2.23554687 8.91855469 2.23554687 8.91855469 1.328125 8.0703125 C-0.11815065 6.71734496 -1.55958468 5.35920496 -3 4 C-2.01 3.34 -1.02 2.68 0 2 C0 1.34 0 0.68 0 0 Z " fill="#0C4F71" transform="translate(101,136)"/>
<path d="M0 0 C0.66 0 1.32 0 2 0 C2.66 1.65 3.32 3.3 4 5 C4.66 5 5.32 5 6 5 C5.67 5.99 5.34 6.98 5 8 C5 8.99 5 9.98 5 11 C5 11.99 5 12.98 5 14 C5.66 14.33 6.32 14.66 7 15 C8.0194119 15.98020375 9.02246356 16.97803008 10 18 C9.34 18.99 8.68 19.98 8 21 C7.34 21 6.68 21 6 21 C5.01161567 18.9627797 4.03467748 16.92000393 3.0625 14.875 C2.51722656 13.73804687 1.97195312 12.60109375 1.41015625 11.4296875 C0.08008313 8.19477282 -0.68286116 5.47342536 -1 2 C-0.67 1.34 -0.34 0.68 0 0 Z " fill="#02618C" transform="translate(143,76)"/>
<path d="M0 0 C6.55925943 0.38979206 11.94526627 1.42113193 18 4 C14.98968256 4.93423645 14.13349732 5.04449911 11 4 C11 4.66 11 5.32 11 6 C9.37536158 6.05395478 7.75021459 6.09277195 6.125 6.125 C5.22007813 6.14820313 4.31515625 6.17140625 3.3828125 6.1953125 C1 6 1 6 -1 4 C-0.625 1.875 -0.625 1.875 0 0 Z " fill="#025F89" transform="translate(71,19)"/>
<path d="M0 0 C4.12751449 0.60698743 7.3321148 2.03810791 11 4 C11.33 3.34 11.66 2.68 12 2 C18.70459519 8.07439825 18.70459519 8.07439825 19.9375 11.9375 C19.958125 12.618125 19.97875 13.29875 20 14 C19.01 13.67 18.02 13.34 17 13 C17 12.34 17 11.68 17 11 C16.45601562 10.7421875 15.91203125 10.484375 15.3515625 10.21875 C12.59026765 8.78764702 9.99909191 7.16923367 7.375 5.5 C6.41335937 4.8915625 5.45171875 4.283125 4.4609375 3.65625 C2 2 2 2 0 0 Z " fill="#0C5274" transform="translate(200,177)"/>
<path d="M0 0 C0.66 0.66 1.32 1.32 2 2 C2.94875 2.309375 3.8975 2.61875 4.875 2.9375 C7.82443346 3.94030738 9.64685679 5.00887882 12 7 C11.34 8.65 10.68 10.3 10 12 C9.34 11.34 8.68 10.68 8 10 C7.195625 9.71125 6.39125 9.4225 5.5625 9.125 C2.61406901 7.83056688 1.55998242 6.79154749 0 4 C0 2.68 0 1.36 0 0 Z " fill="#02608C" transform="translate(181,159)"/>
<path d="M0 0 C2.3431213 0.25561323 4.67843403 0.59270772 7 1 C7.33 1.66 7.66 2.32 8 3 C7.360625 3.28875 6.72125 3.5775 6.0625 3.875 C3.84793921 4.82823451 3.84793921 4.82823451 3 7 C2.34 7 1.68 7 1 7 C1 8.65 1 10.3 1 12 C0.01 12 -0.98 12 -2 12 C-2.33 11.67 -2.66 11.34 -3 11 C-2.61577388 6.92720311 -2.12055529 3.53425882 0 0 Z " fill="#03608B" transform="translate(38,7)"/>
<path d="M0 0 C0.66 0.33 1.32 0.66 2 1 C1.896875 1.825 1.79375 2.65 1.6875 3.5 C2.11169368 8.25096921 4.28442298 11.17879519 7 15 C5.02 15.33 3.04 15.66 1 16 C-1.98383828 10.6061385 -2.17766208 7.65708842 -0.54296875 1.72265625 C-0.27419922 0.86994141 -0.27419922 0.86994141 0 0 Z " fill="#065578" transform="translate(39,14)"/>
<path d="M0 0 C1.4585872 0.64525977 2.91686137 1.2912272 4.375 1.9375 C5.59316406 2.47697266 5.59316406 2.47697266 6.8359375 3.02734375 C8.23683785 3.6569903 9.62625284 4.31312642 11 5 C10.67 5.99 10.34 6.98 10 8 C10 8.66 10 9.32 10 10 C8.68 10 7.36 10 6 10 C6 9.34 6 8.68 6 8 C5.195625 7.7525 4.39125 7.505 3.5625 7.25 C1 6 1 6 0.1875 4 C0 2 0 2 0 0 Z " fill="#04608B" transform="translate(90,23)"/>
<path d="M0 0 C3.65589852 0.89366408 5.55866062 1.44476659 7.9375 4.4375 C9 7 9 7 8 10 C5.69 9.34 3.38 8.68 1 8 C0.67 5.36 0.34 2.72 0 0 Z " fill="#03618C" transform="translate(156,108)"/>
<path d="M0 0 C0.66 0.33 1.32 0.66 2 1 C2 1.66 2 2.32 2 3 C4.31 3.66 6.62 4.32 9 5 C8.34 5.66 7.68 6.32 7 7 C6.34 6.67 5.68 6.34 5 6 C5 7.98 5 9.96 5 12 C0.2482602 11.56802365 -1.92000054 10.67230705 -5 7 C-2.03 7.495 -2.03 7.495 1 8 C1.33 7.34 1.66 6.68 2 6 C1.34 5.01 0.68 4.02 0 3 C0 2.01 0 1.02 0 0 Z " fill="#0C5576" transform="translate(166,116)"/>
<path d="M0 0 C-0.33 1.32 -0.66 2.64 -1 4 C-1.33 4 -1.66 4 -2 4 C-2.09796875 4.74765625 -2.1959375 5.4953125 -2.296875 6.265625 C-3.53344768 14.40994854 -3.53344768 14.40994854 -6.125 17.6875 C-6.74375 18.120625 -7.3625 18.55375 -8 19 C-7.690625 18.360625 -7.38125 17.72125 -7.0625 17.0625 C-5.68064597 13.07950896 -5.3463457 9.18349151 -5 5 C-5.66 4.67 -6.32 4.34 -7 4 C-6.34 4 -5.68 4 -5 4 C-5.33 3.01 -5.66 2.02 -6 1 C-4 0 -4 0 0 0 Z " fill="#0D5473" transform="translate(88,120)"/>
<path d="M0 0 C0.20086443 3.71599191 0.1519437 4.77208445 -2 8 C-2.33 8.99 -2.66 9.98 -3 11 C-3.99 11.33 -4.98 11.66 -6 12 C-6.33 9.69 -6.66 7.38 -7 5 C-6.34 5 -5.68 5 -5 5 C-4.896875 4.360625 -4.79375 3.72125 -4.6875 3.0625 C-4.460625 2.381875 -4.23375 1.70125 -4 1 C-1 0 -1 0 0 0 Z " fill="#02608A" transform="translate(36,197)"/>
<path d="M0 0 C3.3 0.33 6.6 0.66 10 1 C10 1.99 10 2.98 10 4 C6.84493858 4.93619813 4.03413498 5.1057123 0.75 5.0625 C-0.14203125 5.05347656 -1.0340625 5.04445312 -1.953125 5.03515625 C-2.62859375 5.02355469 -3.3040625 5.01195312 -4 5 C-4 4.67 -4 4.34 -4 4 C-2.35 4 -0.7 4 1 4 C0.67 2.68 0.34 1.36 0 0 Z " fill="#E38B04" transform="translate(187,208)"/>
<path d="M0 0 C0 0.33 0 0.66 0 1 C-0.56847656 1.03738281 -1.13695312 1.07476562 -1.72265625 1.11328125 C-9.35257421 1.76290699 -15.21729751 4.52593287 -22 8 C-21.80859375 6.140625 -21.80859375 6.140625 -21 4 C-14.46418148 0.15679637 -7.41996774 -0.57943349 0 0 Z " fill="#114F6B" transform="translate(197,149)"/>
<path d="M0 0 C0 0.33 0 0.66 0 1 C-2.31 1.33 -4.62 1.66 -7 2 C-7.2475 2.680625 -7.495 3.36125 -7.75 4.0625 C-9.24197908 7.56865083 -11.06835511 10.71620368 -13 14 C-14 12 -14 12 -13.36328125 9.43359375 C-13.01652344 8.44488281 -12.66976562 7.45617187 -12.3125 6.4375 C-11.97863281 5.44621094 -11.64476562 4.45492187 -11.30078125 3.43359375 C-10 1 -10 1 -8.05859375 0.1640625 C-5.36417684 -0.05067281 -2.70133112 -0.06139389 0 0 Z " fill="#124D6C" transform="translate(47,179)"/>
<path d="M0 0 C-2.6855594 2.6855594 -5.37621328 3.06049974 -9 4 C-8.95875 4.94875 -8.9175 5.8975 -8.875 6.875 C-9 10 -9 10 -11 12 C-11.33 11.67 -11.66 11.34 -12 11 C-11.65171504 3.80211082 -11.65171504 3.80211082 -9.375 1 C-6.17067842 -0.34918804 -3.43707561 -0.19829282 0 0 Z " fill="#0D4663" transform="translate(12,179)"/>
<path d="M0 0 C0.33 0.66 0.66 1.32 1 2 C-1.68029807 3.34014903 -4.22275613 3.56330585 -7.1875 4 C-8.35023438 4.17273438 -9.51296875 4.34546875 -10.7109375 4.5234375 C-11.79632813 4.68070313 -12.88171875 4.83796875 -14 5 C-14.79664063 5.11601562 -15.59328125 5.23203125 -16.4140625 5.3515625 C-17.94214485 5.57165667 -19.47096203 5.78664586 -21 6 C-20.67 5.01 -20.34 4.02 -20 3 C-18.08574219 2.80083984 -18.08574219 2.80083984 -16.1328125 2.59765625 C-14.46352004 2.41947335 -12.79425036 2.24107686 -11.125 2.0625 C-10.28324219 1.97548828 -9.44148437 1.88847656 -8.57421875 1.79882812 C-7.36572266 1.66831055 -7.36572266 1.66831055 -6.1328125 1.53515625 C-5.38918457 1.456604 -4.64555664 1.37805176 -3.87939453 1.29711914 C-1.91553684 1.08362653 -1.91553684 1.08362653 0 0 Z " fill="#0E5373" transform="translate(208,152)"/>
<path d="M0 0 C2.64 0 5.28 0 8 0 C8.6875 1.8125 8.6875 1.8125 9 4 C7.5625 5.75 7.5625 5.75 6 7 C6 6.34 6 5.68 6 5 C5.34 5 4.68 5 4 5 C3.34 4.34 2.68 3.68 2 3 C1.34 2.67 0.68 2.34 0 2 C0 1.34 0 0.68 0 0 Z " fill="#DB9614" transform="translate(210,205)"/>
<path d="M0 0 C2.64 0 5.28 0 8 0 C8.33 1.32 8.66 2.64 9 4 C5.06329512 5.31223496 2.87511856 4.24296256 -1 3 C-0.67 2.01 -0.34 1.02 0 0 Z " fill="#E88904" transform="translate(110,195)"/>
<path d="M0 0 C0.66 0 1.32 0 2 0 C2.33 1.65 2.66 3.3 3 5 C3.66 5 4.32 5 5 5 C5 5.99 5 6.98 5 8 C3.68 8.33 2.36 8.66 1 9 C1 8.34 1 7.68 1 7 C0.34 7 -0.32 7 -1 7 C-1.625 5.1875 -1.625 5.1875 -2 3 C-1.34 2.01 -0.68 1.02 0 0 Z " fill="#025F89" transform="translate(14,187)"/>
<path d="M0 0 C0.99 0 1.98 0 3 0 C3 0.66 3 1.32 3 2 C4.670625 2.37125 4.670625 2.37125 6.375 2.75 C10 4 10 4 11.4375 6.125 C11.7159375 7.053125 11.7159375 7.053125 12 8 C7.76570244 6.68938409 3.92592596 5.05643741 0 3 C0 2.01 0 1.02 0 0 Z " fill="#04608A" transform="translate(199,173)"/>
<path d="M0 0 C3.80635497 3.20760251 7.54563567 6.40746109 11 10 C10.67 10.66 10.34 11.32 10 12 C5.32751069 9.17477391 2.34003602 6.32239956 -1 2 C-0.67 1.34 -0.34 0.68 0 0 Z " fill="#1E5066" transform="translate(107,144)"/>
<path d="M0 0 C3.31530866 0.55255144 6.2084168 1.0747702 9 3 C10.25 5.625 10.25 5.625 11 8 C9.68 8 8.36 8 7 8 C7 7.34 7 6.68 7 6 C6.34 6 5.68 6 5 6 C5 5.01 5 4.02 5 3 C3.35 2.67 1.7 2.34 0 2 C0 1.34 0 0.68 0 0 Z " fill="#04608B" transform="translate(192,135)"/>
<path d="M0 0 C5.67853635 1.41963409 9.53174216 4.39363961 14 8 C13.67 8.66 13.34 9.32 13 10 C12.46890625 9.65066406 11.9378125 9.30132812 11.390625 8.94140625 C10.68421875 8.48636719 9.9778125 8.03132813 9.25 7.5625 C8.55390625 7.11003906 7.8578125 6.65757813 7.140625 6.19140625 C5.07042986 5.0391991 3.31303676 4.45323018 1 4 C0.67 2.68 0.34 1.36 0 0 Z " fill="#0B5274" transform="translate(57,10)"/>
<path d="M0 0 C2.5625 2.125 2.5625 2.125 5 5 C4.87695017 8.13777068 4.39649044 10.20701911 3 13 C1.68 12.67 0.36 12.34 -1 12 C-0.67 11.01 -0.34 10.02 0 9 C0.66 9 1.32 9 2 9 C2 7.35 2 5.7 2 4 C1.34 3.67 0.68 3.34 0 3 C0 2.01 0 1.02 0 0 Z " fill="#0F4863" transform="translate(76,38)"/>
<path d="M0 0 C2.01822917 0.06510417 4.03645833 0.13020833 6.0546875 0.1953125 C7.15127686 3.48508058 6.85421888 4.90835017 6.0546875 8.1953125 C5.3946875 8.1953125 4.7346875 8.1953125 4.0546875 8.1953125 C3.7246875 6.5453125 3.3946875 4.8953125 3.0546875 3.1953125 C0.7446875 2.8653125 -1.5653125 2.5353125 -3.9453125 2.1953125 C-1.9453125 0.1953125 -1.9453125 0.1953125 0 0 Z " fill="#CB913B" transform="translate(214.9453125,202.8046875)"/>
<path d="M0 0 C2.55238691 2.55238691 3.37101985 5.017787 4.6875 8.375 C5.14511719 9.51710938 5.60273437 10.65921875 6.07421875 11.8359375 C7.01097626 15.03751381 6.93925089 15.96562361 6 19 C4.99394407 16.39802798 3.99497475 13.79370638 3 11.1875 C2.57074219 10.08051758 2.57074219 10.08051758 2.1328125 8.95117188 C1.86210938 8.23896484 1.59140625 7.52675781 1.3125 6.79296875 C1.06113281 6.1383667 0.80976562 5.48376465 0.55078125 4.80932617 C0 3 0 3 0 0 Z " fill="#0E4E6F" transform="translate(50,48)"/>
<path d="M0 0 C3.71060708 2.11939179 6.99883918 4.4923892 10.3125 7.1875 C11.19550781 7.90292969 12.07851562 8.61835937 12.98828125 9.35546875 C13.65214844 9.89816406 14.31601563 10.44085938 15 11 C14.01 11.33 13.02 11.66 12 12 C7.4607193 9.14193437 3.58645682 6.02117885 0 2 C0 1.34 0 0.68 0 0 Z " fill="#0D4D6B" transform="translate(110,33)"/>
<path d="M0 0 C0.33 0 0.66 0 1 0 C1.03738281 0.75925781 1.07476562 1.51851562 1.11328125 2.30078125 C1.17902344 3.29464844 1.24476562 4.28851563 1.3125 5.3125 C1.37050781 6.29863281 1.42851563 7.28476563 1.48828125 8.30078125 C2.04622813 11.24384457 2.68540132 12.18182999 5 14 C3.35 13.67 1.7 13.34 0 13 C-2.21538462 5.73846154 -2.21538462 5.73846154 -1.125 2 C-0.75375 1.34 -0.3825 0.68 0 0 Z " fill="#CD9228" transform="translate(98,184)"/>
<path d="M0 0 C0.66 0 1.32 0 2 0 C2.66 0.99 3.32 1.98 4 3 C6.44063441 3.67147918 6.44063441 3.67147918 9 4 C9.99 4.33 10.98 4.66 12 5 C12 5.66 12 6.32 12 7 C9.06552319 7.34934248 6.85632498 7.51495218 4.265625 5.95703125 C2.625 4.625 2.625 4.625 0 2 C0 1.34 0 0.68 0 0 Z " fill="#0D5876" transform="translate(67,133)"/>
<path d="M0 0 C3.67758005 3.28355362 5.81389118 6.62778237 8 11 C7.67 11.66 7.34 12.32 7 13 C6.34 12.67 5.68 12.34 5 12 C4.896875 11.4225 4.79375 10.845 4.6875 10.25 C3.68370772 6.96486163 1.48026672 5.28947698 -1 3 C-0.67 2.01 -0.34 1.02 0 0 Z " fill="#0B5677" transform="translate(46,29)"/>
<path d="M0 0 C3.63 0 7.26 0 11 0 C11 0.99 11 1.98 11 3 C8.69 2.67 6.38 2.34 4 2 C4 2.99 4 3.98 4 5 C3.34 5 2.68 5 2 5 C1.34 3.35 0.68 1.7 0 0 Z " fill="#CD9333" transform="translate(147,203)"/>
<path d="M0 0 C2.96404505 2.80804268 5.44499019 5.18315774 7 9 C5.68 9.33 4.36 9.66 3 10 C3.33 9.01 3.66 8.02 4 7 C3.34 7 2.68 7 2 7 C0.5393715 4.35261084 0 3.10551666 0 0 Z " fill="#0D4E6C" transform="translate(207,143)"/>
<path d="M0 0 C0.66 0.33 1.32 0.66 2 1 C2.94934202 3.92713788 3.23176473 5.42831368 2.0625 8.3125 C1.5365625 9.1478125 1.5365625 9.1478125 1 10 C0.34 9.67 -0.32 9.34 -1 9 C-0.979375 8.05125 -0.95875 7.1025 -0.9375 6.125 C-0.77448174 3.09333717 -0.77448174 3.09333717 -2 1 C-1.34 0.67 -0.68 0.34 0 0 Z " fill="#05608D" transform="translate(154,95)"/>
<path d="M0 0 C3.66881155 0.70554068 6.70450534 2.27735506 10 4 C9.34 5.32 8.68 6.64 8 8 C6.66372225 6.85760183 5.33104612 5.71098945 4 4.5625 C3.2575 3.92441406 2.515 3.28632812 1.75 2.62890625 C1.1725 2.09136719 0.595 1.55382813 0 1 C0 0.67 0 0.34 0 0 Z " fill="#095676" transform="translate(112,44)"/>
<path d="M0 0 C1.98 0 3.96 0 6 0 C6.33 1.32 6.66 2.64 7 4 C4.03 3.67 1.06 3.34 -2 3 C-1.34 2.67 -0.68 2.34 0 2 C0 1.34 0 0.68 0 0 Z " fill="#035E8B" transform="translate(78,219)"/>
<path d="M0 0 C0.33 1.98 0.66 3.96 1 6 C0.34 5.67 -0.32 5.34 -1 5 C-1 4.34 -1 3.68 -1 3 C-1.66 3 -2.32 3 -3 3 C-3.268125 3.598125 -3.53625 4.19625 -3.8125 4.8125 C-4.98493467 6.97224808 -6.19369282 8.35790256 -8 10 C-7.690625 9.236875 -7.38125 8.47375 -7.0625 7.6875 C-6.32106407 5.81210323 -5.63771783 3.91315348 -5 2 C-2 0 -2 0 0 0 Z " fill="#114B6B" transform="translate(87,104)"/>
<path d="M0 0 C0.66 0 1.32 0 2 0 C1.67 1.32 1.34 2.64 1 4 C2.94074861 3.72382467 2.94074861 3.72382467 5 3 C5.66 2.01 6.32 1.02 7 0 C7.042721 1.66611905 7.04063832 3.33382885 7 5 C6 6 6 6 2.9375 6.0625 C1.4834375 6.0315625 1.4834375 6.0315625 0 6 C0 4.02 0 2.04 0 0 Z " fill="#115677" transform="translate(1,208)"/>
<path d="M0 0 C1.98 0.66 3.96 1.32 6 2 C6 2.66 6 3.32 6 4 C6.66 4.33 7.32 4.66 8 5 C6.02 5.33 4.04 5.66 2 6 C1.34 4.02 0.68 2.04 0 0 Z " fill="#E68A01" transform="translate(151,206)"/>
<path d="M0 0 C1.27875 -0.061875 2.5575 -0.12375 3.875 -0.1875 C4.95394531 -0.23970703 4.95394531 -0.23970703 6.0546875 -0.29296875 C6.69664063 -0.19628906 7.33859375 -0.09960938 8 0 C10.56687367 3.8503105 9.83288724 5.58569763 9 10 C8.67 10 8.34 10 8 10 C7.67 7.36 7.34 4.72 7 2 C4.69 1.67 2.38 1.34 0 1 C0 0.67 0 0.34 0 0 Z " fill="#07537D" transform="translate(42,180)"/>
<path d="M0 0 C1.32 0.33 2.64 0.66 4 1 C3.34 2.32 2.68 3.64 2 5 C1.67 4.34 1.34 3.68 1 3 C-1.64 3 -4.28 3 -7 3 C-7.33 2.34 -7.66 1.68 -8 1 C-5.36 1.33 -2.72 1.66 0 2 C0 1.34 0 0.68 0 0 Z " fill="#D89C34" transform="translate(170,216)"/>
<path d="M0 0 C1.65 0 3.3 0 5 0 C5.66 2.64 6.32 5.28 7 8 C4.35247996 5.42215154 2.05567935 3.08351902 0 0 Z " fill="#0A5170" transform="translate(91,131)"/>
<path d="M0 0 C2.9156164 3.54039134 5.50127818 7.1626772 8 11 C7.67 11.66 7.34 12.32 7 13 C5.82157218 11.59310148 4.65762602 10.17406375 3.5 8.75 C2.8503125 7.96109375 2.200625 7.1721875 1.53125 6.359375 C0 4 0 4 0 0 Z " fill="#0F5170" transform="translate(140,63)"/>
<path d="M0 0 C1.32 0.33 2.64 0.66 4 1 C4.144375 1.928125 4.28875 2.85625 4.4375 3.8125 C4.92100111 7.00725111 4.92100111 7.00725111 6 10 C5.34 10 4.68 10 4 10 C3.32845067 8.71086513 2.66291141 7.41859796 2 6.125 C1.62875 5.40570313 1.2575 4.68640625 0.875 3.9453125 C0 2 0 2 0 0 Z " fill="#105272" transform="translate(152,105)"/>
<path d="M0 0 C1.65 0 3.3 0 5 0 C6.125 4.75 6.125 4.75 5 7 C2.50650682 5.75325341 1.53359929 4.30039894 0 2 C0 1.34 0 0.68 0 0 Z " fill="#0B4C6F" transform="translate(70,38)"/>
<path d="M0 0 C0.66 0.99 1.32 1.98 2 3 C1.34 3.66 0.68 4.32 0 5 C-2.125 4.625 -2.125 4.625 -4 4 C-4 3.01 -4 2.02 -4 1 C-2.68 0.67 -1.36 0.34 0 0 Z " fill="#03608F" transform="translate(167,120)"/>
<path d="M0 0 C2.475 0.495 2.475 0.495 5 1 C4.67 2.98 4.34 4.96 4 7 C0 2.25 0 2.25 0 0 Z " fill="#0B5674" transform="translate(157,116)"/>
<path d="M0 0 C0.99 0 1.98 0 3 0 C3.33 1.98 3.66 3.96 4 6 C3.01 6 2.02 6 1 6 C-0.0625 4.125 -0.0625 4.125 -1 2 C-0.67 1.34 -0.34 0.68 0 0 Z " fill="#0A5879" transform="translate(87,111)"/>
<path d="M0 0 C1.32 0 2.64 0 4 0 C4 1.65 4 3.3 4 5 C1 5 1 5 -0.6875 3.5 C-1.120625 3.005 -1.55375 2.51 -2 2 C-1.34 1.34 -0.68 0.68 0 0 Z " fill="#07567B" transform="translate(109,38)"/>
<path d="M0 0 C0.99 0 1.98 0 3 0 C2 3 2 3 -1 5 C-3.1875 4.625 -3.1875 4.625 -5 4 C-4.34 4 -3.68 4 -3 4 C-3 3.34 -3 2.68 -3 2 C-2.01 2 -1.02 2 0 2 C0 1.34 0 0.68 0 0 Z " fill="#D7961C" transform="translate(126,209)"/>
<path d="M0 0 C3 2 3 2 3.6875 4.625 C3.790625 5.40875 3.89375 6.1925 4 7 C3.01 6.67 2.02 6.34 1 6 C1 5.34 1 4.68 1 4 C0.01 3.67 -0.98 3.34 -2 3 C-1.34 2.67 -0.68 2.34 0 2 C0 1.34 0 0.68 0 0 Z " fill="#1F5571" transform="translate(216,184)"/>
<path d="M0 0 C0.99 0.495 0.99 0.495 2 1 C2 1.66 2 2.32 2 3 C2.61875 3.28875 3.2375 3.5775 3.875 3.875 C6 5 6 5 8 7 C4.0521912 7 2.81491174 5.66275435 0 3 C0 2.01 0 1.02 0 0 Z " fill="#0E5371" transform="translate(186,158)"/>
<path d="M0 0 C1.98 0 3.96 0 6 0 C6 0.99 6 1.98 6 3 C6.66 3 7.32 3 8 3 C8 3.66 8 4.32 8 5 C4.62496331 3.8141763 2.35277269 2.72426311 0 0 Z " fill="#0E5172" transform="translate(191,138)"/>
<path d="M0 0 C2.31 0.33 4.62 0.66 7 1 C6.01 1.495 6.01 1.495 5 2 C5 2.99 5 3.98 5 5 C2 4 2 4 0.8125 1.9375 C0.544375 1.298125 0.27625 0.65875 0 0 Z " fill="#095777" transform="translate(127,59)"/>
<path d="M0 0 C2.64 0 5.28 0 8 0 C7.01 0.66 6.02 1.32 5 2 C4.67 2.99 4.34 3.98 4 5 C3.34 4.34 2.68 3.68 2 3 C1.34 2.67 0.68 2.34 0 2 C0 1.34 0 0.68 0 0 Z " fill="#E5A024" transform="translate(210,205)"/>
<path d="M0 0 C1.80125336 2.70188004 3.00243753 4.93057703 4 8 C3.67 8.99 3.34 9.98 3 11 C0 4.5 0 4.5 0 0 Z " fill="#0E5373" transform="translate(54,42)"/>
<path d="" fill="#FFFF00" transform="translate(0,0)"/>
<path d="" fill="#000000" transform="translate(0,0)"/>
<path d="" fill="#000000" transform="translate(0,0)"/>
</svg>
