<?xml version="1.0" encoding="UTF-8"?>
<svg version="1.1" xmlns="http://www.w3.org/2000/svg" width="500" height="500">
<path d="M0 0 C6.49202841 -0.07662893 12.98393838 -0.12884067 19.47631836 -0.16479492 C21.68078978 -0.17979791 23.88523178 -0.20020687 26.08959961 -0.22631836 C29.2746511 -0.26307727 32.4593049 -0.27981175 35.64453125 -0.29296875 C37.10147148 -0.31619453 37.10147148 -0.31619453 38.58784485 -0.33988953 C52.59901815 -0.34326649 62.17558142 4.27082033 72.25 13.75 C76.80095643 18.47653345 79.52479274 22.96934038 82 29 C82.46792969 30.00675781 82.93585938 31.01351562 83.41796875 32.05078125 C91.54386933 50.49594889 94.99930331 70.96803555 96 91 C96.05929687 92.14984375 96.11859375 93.2996875 96.1796875 94.484375 C96.25261617 97.67703028 96.16920793 100.81079841 96 104 C95.96422852 104.68755371 95.92845703 105.37510742 95.89160156 106.08349609 C95.26879481 116.65984588 93.57686328 126.819536 91.125 137.125 C90.88056152 138.1552832 90.63612305 139.18556641 90.38427734 140.24707031 C86.19436293 157.03395289 79.57918426 170.65821354 64.75 180.1875 C49.3791634 189.22813996 33.56453992 190.32543183 16.05664062 190.22705078 C14.6454316 190.22648446 13.23422199 190.22680752 11.82301331 190.22793579 C8.04923402 190.2285017 4.27558598 190.21687324 0.50183678 190.20278788 C-3.46324597 190.19015117 -7.42833284 190.18909995 -11.39343262 190.18673706 C-18.87632218 190.18055984 -26.35915221 190.1642008 -33.84201574 190.14403808 C-42.37184123 190.12156095 -50.9016698 190.11065617 -59.4315176 190.10064721 C-76.95438029 190.07983052 -94.47718153 190.04431857 -112 190 C-112 195.61 -112 201.22 -112 207 C-109.28934326 206.99476318 -106.57868652 206.98952637 -103.78588867 206.98413086 C-94.84119908 206.96757914 -85.89650882 206.95652241 -76.95180798 206.94818783 C-71.52735269 206.94296382 -66.10291307 206.93587486 -60.6784668 206.92456055 C-55.44598041 206.91371463 -50.2135091 206.90771953 -44.98101234 206.90512276 C-42.98228022 206.9032716 -40.98354895 206.89965687 -38.98482323 206.89426994 C-36.19062881 206.88703694 -33.39649715 206.88601002 -30.60229492 206.88647461 C-29.77151428 206.88287933 -28.94073364 206.87928406 -28.08477783 206.87557983 C-24.79680567 206.8815161 -22.14178456 206.95273848 -19 208 C-18.94902444 215.22246261 -18.91415122 222.4448783 -18.89013672 229.66748047 C-18.8801186 232.12127415 -18.86650034 234.57505601 -18.84912109 237.02880859 C-18.82468812 240.56871469 -18.81347466 244.10846206 -18.8046875 247.6484375 C-18.79436493 248.73426117 -18.78404236 249.82008484 -18.77340698 250.93881226 C-18.77167484 262.86760516 -20.46559985 275.95271523 -29 285 C-48.05710175 301.28961822 -76.02943497 303.00615624 -100 304 C-101.19238281 304.05414063 -102.38476562 304.10828125 -103.61328125 304.1640625 C-112.42856691 304.36885266 -121.05256794 303.62065804 -129.8125 302.6875 C-131.51176636 302.51105957 -131.51176636 302.51105957 -133.24536133 302.33105469 C-149.84562715 300.4313828 -166.85749587 295.25079711 -177.8125 281.76953125 C-179.3299665 279.56541117 -180.68262176 277.32819677 -182 275 C-182.38929688 274.39929688 -182.77859375 273.79859375 -183.1796875 273.1796875 C-190.25992358 261.24147921 -188.29684741 243.742443 -188.265625 230.39453125 C-188.26697601 228.33721369 -188.26892016 226.27989644 -188.27142334 224.22257996 C-188.2743521 219.93717369 -188.27014865 215.65185148 -188.26074219 211.36645508 C-188.24932731 205.90311174 -188.25593442 200.43996454 -188.26788712 194.9766283 C-188.27514826 190.73759001 -188.27279869 186.49859747 -188.26763153 182.25955772 C-188.26630791 180.24593774 -188.26789701 178.23231345 -188.27259064 176.2186985 C-188.32342049 148.30285377 -188.32342049 148.30285377 -183 140.4375 C-182.484375 139.65246094 -181.96875 138.86742187 -181.4375 138.05859375 C-180.963125 137.37925781 -180.48875 136.69992187 -180 136 C-179.34 135.01 -178.68 134.02 -178 133 C-177.34 133 -176.68 133 -176 133 C-175.01 131.02 -175.01 131.02 -174 129 C-173.34 129 -172.68 129 -172 129 C-172 128.34 -172 127.68 -172 127 C-160.96708101 118.061084 -147.30658203 113.84902302 -133.30102539 113.8581543 C-132.43520844 113.85467987 -131.56939148 113.85120544 -130.67733765 113.84762573 C-128.80037639 113.84028692 -126.92340656 113.83493157 -125.0464344 113.83133507 C-122.06388054 113.82413724 -119.08148814 113.80844305 -116.09898376 113.78999329 C-107.61964215 113.73770039 -99.14038785 113.68963217 -90.66088867 113.67407227 C-85.46778723 113.66392025 -80.27509161 113.6344106 -75.08215141 113.59275246 C-73.1148735 113.58053567 -71.14753802 113.57530392 -69.18022346 113.57755089 C-52.95920099 113.59151077 -39.38586673 112.21116559 -26 102 C-25.44699219 101.43410156 -24.89398438 100.86820312 -24.32421875 100.28515625 C-23 99 -23 99 -21 99 C-21 98.34 -21 97.68 -21 97 C-19.5426638 95.82615139 -18.08507944 94.65260893 -16.62597656 93.48095703 C-13.92218253 91.01831219 -12.19599632 88.08138707 -10.375 84.9375 C-9.98892578 84.28136719 -9.60285156 83.62523437 -9.20507812 82.94921875 C-2.10366817 70.50668042 -0.87407184 58.67670832 -0.68359375 44.62890625 C-0.6524221 42.71270729 -0.6524221 42.71270729 -0.62062073 40.75779724 C-0.56650546 37.38281381 -0.51619879 34.00781821 -0.46777344 30.63275146 C-0.41728721 27.18024692 -0.3617436 23.72782402 -0.30664062 20.27539062 C-0.19979186 13.51699237 -0.09796778 6.75853251 0 0 Z M-69.4375 237.0625 C-71.87612076 241.64710703 -71.96412872 245.93288739 -71 251 C-68.94137569 254.85051657 -66.29362667 257.23709196 -62.5625 259.4375 C-57.91620506 260.4574184 -54.29655718 260.48303111 -49.8125 258.8125 C-46.06809942 256.39944185 -43.69208297 254.33522189 -42.39453125 249.95703125 C-41.49485627 244.78167322 -42.24617109 241.32957857 -44.69921875 236.7265625 C-46.82873582 233.8999963 -48.90955162 232.3050333 -52.33203125 231.34765625 C-60.10597294 230.45395902 -63.45053558 231.99660703 -69.4375 237.0625 Z " fill="#FDC009" transform="translate(349,145)"/>
<path d="M0 0 C20.13017127 -0.54742122 42.68588423 1.36684125 59.53515625 13.1640625 C60.83646484 14.06125 60.83646484 14.06125 62.1640625 14.9765625 C71.68385895 22.01355064 78.00200114 32.47637212 80.07269287 44.21003723 C80.61130922 48.81516437 80.69047859 53.31642516 80.69628906 57.94799805 C80.70125397 58.90510178 80.70621887 59.86220551 80.71133423 60.84831238 C80.72587934 63.99914279 80.73274538 67.14992285 80.73828125 70.30078125 C80.74110863 71.38264017 80.743936 72.46449909 80.74684906 73.57914162 C80.76181155 79.30528633 80.77105932 85.03140604 80.77539062 90.75756836 C80.78086809 96.64715653 80.80488945 102.53651269 80.83336258 108.42602825 C80.85206578 112.97732697 80.85719866 117.52857067 80.8587265 122.07990456 C80.86173667 124.24983805 80.8697093 126.41977095 80.88291168 128.58966637 C81.00584012 150.34811883 81.00584012 150.34811883 77.53515625 160.1640625 C76.87515625 160.1640625 76.21515625 160.1640625 75.53515625 160.1640625 C75.42816406 160.72738281 75.32117188 161.29070312 75.2109375 161.87109375 C72.36122926 171.540335 63.72604903 178.08490594 55.53515625 183.1640625 C45.83019862 188.13785329 36.28297986 190.464633 25.42626953 190.45117188 C24.56480316 190.45800491 23.70333679 190.46483795 22.81576538 190.47187805 C20.96125989 190.48537592 19.10671815 190.49448671 17.25217056 190.49958801 C14.30786781 190.50794765 11.36386487 190.52851755 8.41964722 190.55212402 C2.16652864 190.60013351 -4.08662013 190.63319395 -10.33984375 190.6640625 C-17.58507883 190.69987206 -24.83016598 190.74198601 -32.07526016 190.80000305 C-34.95936389 190.81989747 -37.84335093 190.82835533 -40.72750854 190.83630371 C-57.48928752 190.65240868 -57.48928752 190.65240868 -72.83984375 196.6015625 C-73.79632813 197.19839844 -74.7528125 197.79523438 -75.73828125 198.41015625 C-77.08792969 199.27833984 -77.08792969 199.27833984 -78.46484375 200.1640625 C-79.356875 200.68742188 -80.24890625 201.21078125 -81.16796875 201.75 C-84.08808935 203.54776132 -86.12226078 205.65415218 -88.46484375 208.1640625 C-89.00109375 208.69515625 -89.53734375 209.22625 -90.08984375 209.7734375 C-98.05305184 218.09214596 -102.76503737 229.07408861 -105.46484375 240.1640625 C-105.63608261 240.74412048 -105.80732147 241.32417847 -105.98374939 241.92181396 C-106.57795378 244.69123723 -106.62850253 247.2928594 -106.67016602 250.12597656 C-106.69011124 251.32691956 -106.71005646 252.52786255 -106.73060608 253.76519775 C-106.74731857 255.05697937 -106.76403107 256.34876099 -106.78125 257.6796875 C-106.80183338 259.01919171 -106.82283021 260.35868963 -106.84422302 261.69818115 C-106.89930084 265.21621591 -106.94877281 268.7343079 -106.99707031 272.25244141 C-107.04739 275.84542914 -107.10302131 279.43833423 -107.15820312 283.03125 C-107.26560975 290.07544905 -107.36709324 297.1197223 -107.46484375 304.1640625 C-113.95687216 304.24069143 -120.44878213 304.29290317 -126.94116211 304.32885742 C-129.14563353 304.34386041 -131.35007553 304.36426937 -133.55444336 304.39038086 C-136.73949485 304.42713977 -139.92414865 304.44387425 -143.109375 304.45703125 C-144.08066849 304.47251511 -145.05196198 304.48799896 -146.0526886 304.50395203 C-159.05407764 304.50708561 -169.84361213 300.45047014 -179.33203125 291.37890625 C-182.46484375 287.77705685 -182.46484375 287.77705685 -182.46484375 285.1640625 C-183.12484375 285.1640625 -183.78484375 285.1640625 -184.46484375 285.1640625 C-185.74210089 282.83405423 -187.01166823 280.50035321 -188.27734375 278.1640625 C-188.63376953 277.51566406 -188.99019531 276.86726563 -189.35742188 276.19921875 C-194.17986694 267.26221046 -196.49622027 258.38816026 -198.52734375 248.4765625 C-198.79047363 247.19450928 -199.05360352 245.91245605 -199.32470703 244.59155273 C-201.46587465 233.80967697 -202.89186035 223.13756276 -203.46484375 212.1640625 C-203.53574219 210.9678125 -203.60664063 209.7715625 -203.6796875 208.5390625 C-204.36305219 185.35933216 -200.38642668 155.16551297 -186.46484375 136.1640625 C-185.94535156 135.39578125 -185.42585938 134.6275 -184.890625 133.8359375 C-177.21230186 123.70132459 -161.78839947 116.88664106 -149.46484375 115.1640625 C-145.95692061 114.89812075 -142.4471498 114.74857266 -138.93212891 114.60986328 C-137.88314737 114.56775286 -136.83416584 114.52564243 -135.75339699 114.48225594 C-122.50086281 113.99759929 -109.24786159 114.01962619 -95.98828125 114.03125 C-93.2344255 114.0310258 -90.48057053 114.02960338 -87.72671509 114.02835083 C-82.01051336 114.02655192 -76.29432473 114.02887928 -70.578125 114.03369141 C-63.98622908 114.03917688 -57.39436389 114.03733149 -50.80246866 114.031865 C-45.09577846 114.02732425 -39.38909749 114.02668663 -33.68240607 114.02930367 C-30.29331496 114.03085514 -26.90423832 114.03109043 -23.51514816 114.02776718 C-19.75665942 114.02523031 -15.99823038 114.02909375 -12.23974609 114.03466797 C-11.13018051 114.03264374 -10.02061493 114.03061951 -8.87742615 114.02853394 C-7.33942604 114.03276367 -7.33942604 114.03276367 -5.77035522 114.03707886 C-4.88526464 114.03745588 -4.00017406 114.03783291 -3.08826256 114.03822136 C-0.19272489 114.1771156 2.67573143 114.6874917 5.53515625 115.1640625 C5.53515625 108.8940625 5.53515625 102.6240625 5.53515625 96.1640625 C2.07015625 96.6590625 2.07015625 96.6590625 -1.46484375 97.1640625 C-3.96530102 97.2518945 -6.46772764 97.29190631 -8.96972656 97.29345703 C-10.0420327 97.29608551 -10.0420327 97.29608551 -11.13600159 97.29876709 C-13.48001596 97.30313829 -15.82395372 97.30026311 -18.16796875 97.296875 C-19.81313084 97.29754969 -21.45829284 97.2985211 -23.10345459 97.29977417 C-26.54635571 97.301245 -29.98923082 97.29911749 -33.43212891 97.29443359 C-37.81734939 97.2887547 -42.2025084 97.29200754 -46.58772659 97.29800606 C-49.98519339 97.3016437 -53.38264596 97.30045815 -56.78011322 97.29787827 C-58.39543414 97.29721689 -60.0107564 97.29800941 -61.62607574 97.30035782 C-80.41673034 97.32167382 -80.41673034 97.32167382 -87.46484375 96.1640625 C-89.00896095 94.6199453 -88.5920339 93.18358648 -88.59423828 91.03417969 C-88.59739044 90.15526062 -88.6005426 89.27634155 -88.60379028 88.37078857 C-88.60075394 86.93041229 -88.60075394 86.93041229 -88.59765625 85.4609375 C-88.59861298 84.47216614 -88.5995697 83.48339478 -88.60055542 82.46466064 C-88.60123812 80.35957781 -88.59937761 78.25449289 -88.59521484 76.14941406 C-88.58993554 72.96935087 -88.59512112 69.78943336 -88.6015625 66.609375 C-88.61750069 29.43456236 -88.61750069 29.43456236 -79.3984375 19.84765625 C-59.21581398 2.27450325 -31.25791142 1.13088972 -5.70263672 0.24316406 C-3.80121801 0.17595267 -1.90047691 0.08998876 0 0 Z M-61.46484375 48.1640625 C-64.28294993 51.51263572 -65.36899513 54.38358091 -65.90234375 58.7265625 C-65.42903535 62.44541423 -64.34887073 64.94551641 -62.46484375 68.1640625 C-61.80484375 68.1640625 -61.14484375 68.1640625 -60.46484375 68.1640625 C-60.46484375 68.8240625 -60.46484375 69.4840625 -60.46484375 70.1640625 C-56.50998548 72.80063468 -53.17520509 73.21108774 -48.46484375 73.1640625 C-44.13986645 71.95874096 -42.06083386 70.83847236 -39.08984375 67.4765625 C-36.43332635 62.06135395 -35.84539449 58.22889337 -37.58984375 52.4140625 C-40.13297237 48.00597289 -42.64266616 45.77145503 -47.46484375 44.1640625 C-53.20995152 43.61164829 -57.08191604 44.47545997 -61.46484375 48.1640625 Z " fill="#0377BB" transform="translate(249.46484375,50.8359375)"/>
<path d="M0 0 C1.98 0 3.96 0 6 0 C-9.43114794 13.07724402 -39.56231221 8.13818541 -58.38798261 8.10139394 C-62.18223211 8.09506542 -65.97648273 8.0945492 -69.77073669 8.09336853 C-76.92774501 8.09028283 -84.08473772 8.08210738 -91.24173921 8.07201904 C-99.40158908 8.06077124 -107.56143976 8.05532579 -115.72129548 8.05032361 C-132.48087299 8.03992188 -149.24043387 8.0221712 -166 8 C-166 13.61 -166 19.22 -166 25 C-163.28934326 24.99476318 -160.57868652 24.98952637 -157.78588867 24.98413086 C-148.84119908 24.96757914 -139.89650882 24.95652241 -130.95180798 24.94818783 C-125.52735269 24.94296382 -120.10291307 24.93587486 -114.6784668 24.92456055 C-109.44598041 24.91371463 -104.2135091 24.90771953 -98.98101234 24.90512276 C-96.98228022 24.9032716 -94.98354895 24.89965687 -92.98482323 24.89426994 C-90.19062881 24.88703694 -87.39649715 24.88601002 -84.60229492 24.88647461 C-83.35612396 24.8810817 -83.35612396 24.8810817 -82.08477783 24.87557983 C-78.79680567 24.8815161 -76.14178456 24.95273848 -73 26 C-72.94902444 33.22246261 -72.91415122 40.4448783 -72.89013672 47.66748047 C-72.8801186 50.12127415 -72.86650034 52.57505601 -72.84912109 55.02880859 C-72.82468812 58.56871469 -72.81347466 62.10846206 -72.8046875 65.6484375 C-72.79436493 66.73426117 -72.78404236 67.82008484 -72.77340698 68.93881226 C-72.77210822 77.88302494 -73.12219695 90.74055955 -79.59765625 97.72265625 C-80.06042969 98.14417969 -80.52320313 98.56570313 -81 99 C-81.625 96.125 -81.625 96.125 -82 93 C-81.34 92.34 -80.68 91.68 -80 91 C-77.01908872 87.72035715 -76.6145828 85.5249505 -76.56762695 81.12988281 C-76.54768677 79.93250488 -76.52774658 78.73512695 -76.50720215 77.50146484 C-76.4978363 75.62128662 -76.4978363 75.62128662 -76.48828125 73.703125 C-76.47164429 72.54731934 -76.45500732 71.39151367 -76.43786621 70.20068359 C-76.38004051 65.8839741 -76.34780805 61.5669524 -76.3125 57.25 C-76.209375 47.5975 -76.10625 37.945 -76 28 C-107.02 28 -138.04 28 -170 28 C-170 21.07 -170 14.14 -170 7 C-166.72804994 5.90934998 -164.32258592 5.86713424 -160.87786865 5.85523987 C-158.95580849 5.84489212 -158.95580849 5.84489212 -156.99491882 5.83433533 C-155.571808 5.83162066 -154.14869703 5.8289835 -152.72558594 5.82641602 C-151.2291291 5.82011063 -149.73267415 5.81334484 -148.23622131 5.80615234 C-145.011415 5.79147959 -141.78661596 5.77975586 -138.56179047 5.77020454 C-133.46004338 5.75475287 -128.35835833 5.73080281 -123.25665283 5.70530701 C-108.74845298 5.63410546 -94.24021744 5.57436367 -79.73193359 5.52319336 C-71.72079719 5.49486306 -63.70972238 5.45946602 -55.6986506 5.41653961 C-50.63017122 5.38980695 -45.56176151 5.37187714 -40.49322557 5.36050236 C-37.3342039 5.35135533 -34.17526657 5.33398331 -31.01629448 5.31432343 C-29.55504372 5.30687041 -28.0937713 5.30276822 -26.6325016 5.30232811 C-24.63166403 5.30123921 -22.63084724 5.2867859 -20.63006592 5.27174377 C-19.51214031 5.26751184 -18.39421471 5.2632799 -17.24241257 5.25891972 C-13.61821476 4.96951291 -10.46925935 4.06427345 -7 3 C-4.67212073 2.63049535 -2.33954855 2.28647533 0 2 C0 1.34 0 0.68 0 0 Z " fill="#F6CA43" transform="translate(403,327)"/>
<path d="M0 0 C1.98 0 3.96 0 6 0 C-9.43114794 13.07724402 -39.56231221 8.13818541 -58.38798261 8.10139394 C-62.18223211 8.09506542 -65.97648273 8.0945492 -69.77073669 8.09336853 C-76.92774501 8.09028283 -84.08473772 8.08210738 -91.24173921 8.07201904 C-99.40158908 8.06077124 -107.56143976 8.05532579 -115.72129548 8.05032361 C-132.48087299 8.03992188 -149.24043387 8.0221712 -166 8 C-166 13.61 -166 19.22 -166 25 C-149.5 25 -133 25 -116 25 C-116 25.66 -116 26.32 -116 27 C-123.24486551 27.02526739 -130.48971974 27.0428318 -137.73461914 27.05493164 C-140.20142033 27.05997356 -142.66821852 27.06680691 -145.13500977 27.07543945 C-148.67204529 27.08751125 -152.20904145 27.09322956 -155.74609375 27.09765625 C-156.85649521 27.10281754 -157.96689667 27.10797882 -159.11094666 27.11329651 C-160.64242088 27.11340981 -160.64242088 27.11340981 -162.20483398 27.11352539 C-163.56051735 27.11685631 -163.56051735 27.11685631 -164.94358826 27.12025452 C-167 27 -167 27 -168 26 C-168.15620555 24.58672053 -168.25056173 23.1664541 -168.31640625 21.74609375 C-168.35830078 20.89208984 -168.40019531 20.03808594 -168.44335938 19.15820312 C-168.48267578 18.26037109 -168.52199219 17.36253906 -168.5625 16.4375 C-168.60568359 15.53580078 -168.64886719 14.63410156 -168.69335938 13.70507812 C-168.79978142 11.47021515 -168.90179988 9.23523692 -169 7 C-166.2581582 5.6290791 -164.06841287 5.86583262 -160.99812317 5.85523987 C-159.71812439 5.84834137 -158.43812561 5.84144287 -157.11933899 5.83433533 C-155.69259658 5.83162048 -154.26585401 5.82898334 -152.83911133 5.82641602 C-151.34280199 5.82011244 -149.84649453 5.81334686 -148.35018921 5.80615234 C-145.12263695 5.79146606 -141.89509203 5.77974777 -138.66752052 5.77020454 C-133.56165282 5.75476684 -128.45584739 5.73081629 -123.35002136 5.70530701 C-108.82900935 5.63407003 -94.30796126 5.57437884 -79.78686523 5.52319336 C-71.7709751 5.49486262 -63.7551465 5.45946374 -55.73932093 5.41653961 C-50.66666071 5.38980294 -45.59407013 5.37187539 -40.52135336 5.36050236 C-37.35905361 5.35135509 -34.19683809 5.3339827 -31.03458786 5.31432343 C-29.57172538 5.30687031 -28.10884125 5.30276822 -26.64595985 5.30232811 C-24.64287927 5.30123921 -22.63981944 5.28678594 -20.63679504 5.27174377 C-19.51757062 5.26751184 -18.3983462 5.2632799 -17.24520588 5.25891972 C-13.61977811 4.96966388 -10.47036841 4.06474809 -7 3 C-4.67212073 2.63049535 -2.33954855 2.28647533 0 2 C0 1.34 0 0.68 0 0 Z " fill="#F6CA5A" transform="translate(403,327)"/>
<path d="M0 0 C0.66 0.33 1.32 0.66 2 1 C1.34 2.32 0.68 3.64 0 5 C-0.66 5 -1.32 5 -2 5 C-2 5.99 -2 6.98 -2 8 C-1.34 8 -0.68 8 0 8 C-0.0625 9.8125 -0.0625 9.8125 -1 12 C-4.5 13.6875 -4.5 13.6875 -8 15 C-9.58272601 16.58272601 -9.34735747 18.38034003 -9.5625 20.5625 C-9.68818359 21.80193359 -9.68818359 21.80193359 -9.81640625 23.06640625 C-9.87699219 23.70449219 -9.93757812 24.34257812 -10 25 C-10.66 25 -11.32 25 -12 25 C-11.91546445 38.25692121 -11.82052984 51.51372382 -11.71247292 64.77047539 C-11.66261636 70.92671346 -11.6162855 77.08293525 -11.578125 83.23925781 C-11.54113767 89.18508549 -11.49474152 95.13077337 -11.44193649 101.07648087 C-11.42346386 103.34013532 -11.40832985 105.60381966 -11.39665604 107.86751938 C-11.37967117 111.04837991 -11.35060717 114.2289252 -11.31884766 117.40966797 C-11.31668747 118.33684128 -11.31452728 119.26401459 -11.31230164 120.21928406 C-11.24380427 125.62130736 -10.62650074 130.54422807 -9.32863426 135.79419136 C-8.97336468 138.17877752 -9.26008206 139.72555205 -10 142 C-10.4939339 140.71390795 -10.96902769 139.42058372 -11.4375 138.125 C-11.83775391 137.04605469 -11.83775391 137.04605469 -12.24609375 135.9453125 C-14.12151497 128.61853737 -14.14940158 120.95147505 -14.14526367 113.42626953 C-14.14862228 112.52724915 -14.1519809 111.62822876 -14.15544128 110.70196533 C-14.16485536 107.76223325 -14.1668894 104.82255867 -14.16796875 101.8828125 C-14.17118745 99.81834897 -14.17455197 97.75388567 -14.17805481 95.68942261 C-14.18402185 91.37416048 -14.18589716 87.0589183 -14.18530273 82.74365234 C-14.18520113 77.24094474 -14.19886228 71.73836621 -14.21607494 66.23568916 C-14.22724495 61.97520368 -14.22922043 57.71474895 -14.22869301 53.45425034 C-14.22986525 51.42667063 -14.23424405 49.39908992 -14.24202538 47.37152481 C-14.33960225 19.32676232 -14.33960225 19.32676232 -9 11.4375 C-8.484375 10.65246094 -7.96875 9.86742187 -7.4375 9.05859375 C-6.963125 8.37925781 -6.48875 7.69992187 -6 7 C-5.34 6.01 -4.68 5.02 -4 4 C-3.34 4 -2.68 4 -2 4 C-1.34 2.68 -0.68 1.36 0 0 Z " fill="#F8D763" transform="translate(175,274)"/>
<path d="M0 0 C0.33 0.99 0.66 1.98 1 3 C0.34 3 -0.32 3 -1 3 C-1 3.99 -1 4.98 -1 6 C-1.598125 6.268125 -2.19625 6.53625 -2.8125 6.8125 C-4.97224808 7.98493467 -6.35790256 9.19369282 -8 11 C-8.99 10.505 -8.99 10.505 -10 10 C-10 10.66 -10 11.32 -10 12 C-11.87144695 12.82065069 -13.74734336 13.6311584 -15.625 14.4375 C-16.66914063 14.88996094 -17.71328125 15.34242188 -18.7890625 15.80859375 C-22 17 -22 17 -25.3359375 17.53515625 C-26.21507812 17.68855469 -27.09421875 17.84195312 -28 18 C-28.33 18.66 -28.66 19.32 -29 20 C-79.985 20.495 -79.985 20.495 -132 21 C-126.02506399 18.01253199 -120.90073892 17.85385145 -114.30102539 17.8581543 C-113.43520844 17.85467987 -112.56939148 17.85120544 -111.67733765 17.84762573 C-109.80037639 17.84028692 -107.92340656 17.83493157 -106.0464344 17.83133507 C-103.06388054 17.82413724 -100.08148814 17.80844305 -97.09898376 17.78999329 C-88.61964215 17.73770039 -80.14038785 17.68963217 -71.66088867 17.67407227 C-66.46778723 17.66392025 -61.27509161 17.6344106 -56.08215141 17.59275246 C-54.1148735 17.58053567 -52.14753802 17.57530392 -50.18022346 17.57755089 C-33.95920099 17.59151077 -20.38586673 16.21116559 -7 6 C-6.17048828 5.15115234 -6.17048828 5.15115234 -5.32421875 4.28515625 C-4 3 -4 3 -2 3 C-2 2.34 -2 1.68 -2 1 C-1.34 0.67 -0.68 0.34 0 0 Z " fill="#F3D16B" transform="translate(330,241)"/>
<path d="M0 0 C2.63729507 2.32081966 3.84129075 4.49524112 5.125 7.75 C5.45757812 8.56984375 5.79015625 9.3896875 6.1328125 10.234375 C8.15566812 16.68564426 8.14443105 23.19014352 8.12939453 29.87915039 C8.13114685 30.84589188 8.13289917 31.81263336 8.13470459 32.80867004 C8.13908796 35.98835064 8.13619773 39.16797514 8.1328125 42.34765625 C8.13348649 44.56530264 8.13445732 46.78294896 8.13571167 49.00059509 C8.13718383 53.64143581 8.13504933 58.28225724 8.13037109 62.9230957 C8.12467078 68.86699742 8.12795779 74.810854 8.13394356 80.75475407 C8.1375593 85.33154133 8.13640597 89.90831792 8.13381577 94.48510551 C8.13314948 96.6767318 8.1339645 98.86835906 8.13629532 101.05998421 C8.1388388 104.12343027 8.13495742 107.18680349 8.12939453 110.25024414 C8.13141876 111.15274902 8.13344299 112.05525391 8.13552856 112.98510742 C8.12057116 117.43837959 7.90202328 121.61626985 7 126 C6.67 126 6.34 126 6 126 C5.98969254 124.76131165 5.97938507 123.52262329 5.96876526 122.24639893 C5.87073446 110.53603958 5.76797432 98.82572987 5.66066074 87.11545181 C5.60564837 81.09602831 5.55226477 75.0765998 5.50268555 69.05712891 C5.45471998 63.24101599 5.40236876 57.42495715 5.34705925 51.60890961 C5.32678055 49.39713652 5.30804504 47.18534869 5.29092598 44.97354889 C5.38411099 26.38158907 5.38411099 26.38158907 3 8 C2.34 8 1.68 8 1 8 C0.67 5.36 0.34 2.72 0 0 Z " fill="#529EC6" transform="translate(322,79)"/>
<path d="M0 0 C0.99 0.495 0.99 0.495 2 1 C1.78937424 1.77143845 1.57874847 2.54287689 1.36174011 3.33769226 C-0.78822345 11.79145858 -1.46707394 19.69371916 -1.51171875 28.39453125 C-1.52966995 29.70789963 -1.54762115 31.02126801 -1.56611633 32.37443542 C-1.6130315 35.81836094 -1.64321466 39.26222378 -1.66955566 42.70635986 C-1.69966157 46.23991284 -1.7460861 49.77325056 -1.79101562 53.30664062 C-1.87638024 60.20430315 -1.94401746 67.10203793 -2 74 C-8.49202841 74.07662893 -14.98393838 74.12884067 -21.47631836 74.16479492 C-23.68078978 74.17979791 -25.88523178 74.20020687 -28.08959961 74.22631836 C-31.2746511 74.26307727 -34.4593049 74.27981175 -37.64453125 74.29296875 C-38.61582474 74.30845261 -39.58711823 74.32393646 -40.58784485 74.33988953 C-48.58271345 74.34181644 -56.47624054 73.4182663 -63.1875 68.8125 C-63.785625 68.214375 -64.38375 67.61625 -65 67 C-61.50174729 67.43728159 -58.73233215 68.11465921 -55.47265625 69.51098633 C-50.33455659 71.46920231 -45.38407598 71.47644919 -39.9375 71.51171875 C-38.90560547 71.52966995 -37.87371094 71.54762115 -36.81054688 71.56611633 C-33.54040516 71.61995456 -30.27040719 71.65403022 -27 71.6875 C-24.77211553 71.72069642 -22.54424996 71.75518821 -20.31640625 71.79101562 C-14.87773315 71.87566554 -9.43904082 71.94412667 -4 72 C-3.99413376 71.21596802 -3.98826752 70.43193604 -3.98222351 69.62414551 C-3.92414764 62.20949023 -3.85198672 54.79516528 -3.76428509 47.38080597 C-3.71969361 43.56964767 -3.68041345 39.75859349 -3.65356445 35.94726562 C-3.62741855 32.26418114 -3.58693827 28.58149981 -3.53681374 24.89866638 C-3.52022083 23.49862205 -3.50865961 22.09850811 -3.50238609 20.69837952 C-3.46517335 13.15178607 -3.27802711 6.86897416 0 0 Z " fill="#408BB3" transform="translate(144,281)"/>
<path d="M0 0 C8.91 0 17.82 0 27 0 C27 0.99 27 1.98 27 3 C38.88 3 50.76 3 63 3 C63 3.33 63 3.66 63 4 C47.39756366 5.16188356 32.33228579 5.29956342 16.75 3.625 C15.55850342 3.49899414 14.36700684 3.37298828 13.1394043 3.24316406 C12.01574463 3.11393555 10.89208496 2.98470703 9.734375 2.8515625 C8.72600586 2.73635254 7.71763672 2.62114258 6.67871094 2.50244141 C4 2 4 2 0 0 Z " fill="#F6D353" transform="translate(202,444)"/>
<path d="M0 0 C0.33 0 0.66 0 1 0 C1.10199025 6.93753403 1.17171192 13.87487245 1.21972656 20.81298828 C1.23975732 23.16983261 1.26698992 25.52662778 1.30175781 27.88330078 C1.35065172 31.28430362 1.37305502 34.6846455 1.390625 38.0859375 C1.41127014 39.12801361 1.43191528 40.17008972 1.45318604 41.2437439 C1.45540363 48.58582569 0.54213737 56.14920973 -4.63519287 61.77767944 C-5.3107724 62.38272812 -5.3107724 62.38272812 -6 63 C-6.625 60.125 -6.625 60.125 -7 57 C-6.34 56.34 -5.68 55.68 -5 55 C-1.8756279 51.12577859 -0.88562561 48.20333672 -0.79467773 43.25317383 C-0.77473251 42.29240433 -0.75478729 41.33163483 -0.73423767 40.3417511 C-0.70916893 38.79006477 -0.70916893 38.79006477 -0.68359375 37.20703125 C-0.66281265 36.14586594 -0.64203156 35.08470062 -0.62062073 33.99137878 C-0.55518762 30.59848563 -0.49626907 27.2055145 -0.4375 23.8125 C-0.39430886 21.51366378 -0.35069438 19.21483547 -0.30664062 16.91601562 C-0.1995126 11.2774264 -0.09773449 5.63875944 0 0 Z " fill="#F0C63C" transform="translate(328,363)"/>
<path d="M0 0 C3.71356566 3.71356566 3.98951072 9.621241 5.125 14.625 C5.40214844 15.78902344 5.67929687 16.95304687 5.96484375 18.15234375 C7.36428128 24.23955232 8.3547419 29.75345786 8 36 C5.92111141 32.42719148 5.23562776 28.84492559 4.4375 24.8125 C3.92470138 20.58223051 3.92470138 20.58223051 2 17 C1.95919217 15.00041636 1.95745644 12.99954746 2 11 C1.01 11 0.02 11 -1 11 C-0.67 7.37 -0.34 3.74 0 0 Z " fill="#F6D568" transform="translate(435,187)"/>
<path d="M0 0 C3.49825271 0.43728159 6.26766785 1.11465921 9.52734375 2.51098633 C14.66544341 4.46920231 19.61592402 4.47644919 25.0625 4.51171875 C26.09439453 4.52966995 27.12628906 4.54762115 28.18945312 4.56611633 C31.45959484 4.61995456 34.72959281 4.65403022 38 4.6875 C40.22788447 4.72069642 42.45575004 4.75518821 44.68359375 4.79101562 C50.12226685 4.87566554 55.56095918 4.94412667 61 5 C61.33 4.34 61.66 3.68 62 3 C62 3.99 62 4.98 62 6 C55.04409873 6.07641436 48.08830677 6.1287523 41.13208008 6.16479492 C38.76843216 6.17982941 36.40481189 6.20026242 34.04125977 6.22631836 C30.63290559 6.26293645 27.22492208 6.27978031 23.81640625 6.29296875 C22.76916885 6.30845261 21.72193146 6.32393646 20.64295959 6.33988953 C13.9317906 6.34140969 6.45860536 6.1764885 1.25318909 1.39567566 C0.83963669 0.93510269 0.42608429 0.47452972 0 0 Z " fill="#1678B0" transform="translate(79,348)"/>
<path d="M0 0 C-0.556875 0.391875 -1.11375 0.78375 -1.6875 1.1875 C-4.34479432 3.27024419 -6.64643674 5.58282693 -9 8 C-9.33 8.33 -9.66 8.66 -10 9 C-10.51324836 14.88261584 -10.9477585 20.22979181 -7 25 C-8.32 24.67 -9.64 24.34 -11 24 C-11.33 22.35 -11.66 20.7 -12 19 C-12.66 19 -13.32 19 -14 19 C-14.33249053 12.79351012 -13.54922986 8.68674354 -11 3 C-7.72430636 -0.27569364 -4.48909309 -0.12469703 0 0 Z " fill="#F7D75C" transform="translate(289,376)"/>
<path d="M0 0 C4.37047325 3.88486511 6.61630774 7.70290609 9 13 C9.38671875 13.78375 9.7734375 14.5675 10.171875 15.375 C10.54828125 16.15875 10.9246875 16.9425 11.3125 17.75 C11.65925781 18.46671875 12.00601562 19.1834375 12.36328125 19.921875 C13.10792077 22.35223221 12.82683893 23.63150654 12 26 C11.566875 25.030625 11.13375 24.06125 10.6875 23.0625 C9.2985139 19.72268235 9.2985139 19.72268235 6 19 C6 17.02 6 15.04 6 13 C5.34 13 4.68 13 4 13 C3.79503906 12.31292969 3.59007812 11.62585938 3.37890625 10.91796875 C3.10949219 10.01691406 2.84007812 9.11585938 2.5625 8.1875 C2.16224609 6.84751953 2.16224609 6.84751953 1.75390625 5.48046875 C1.19612127 3.64526945 0.60655425 1.81966274 0 0 Z " fill="#F7CA44" transform="translate(422,161)"/>
<path d="M0 0 C0.66 0 1.32 0 2 0 C0.25896417 11.63745 -2.62045684 27.89869914 -12.1875 35.80859375 C-13.0846875 36.39833984 -13.0846875 36.39833984 -14 37 C-13.71125 36.505 -13.4225 36.01 -13.125 35.5 C-11.58711584 32.08247965 -10.85152195 28.6493798 -10 25 C-9.01 25 -8.02 25 -7 25 C-6.87625 24.443125 -6.7525 23.88625 -6.625 23.3125 C-6 21 -6 21 -5 18.6875 C-3.80684325 15.48089123 -3.39867742 12.38875807 -3 9 C-2.34 9 -1.68 9 -1 9 C-0.67 6.03 -0.34 3.06 0 0 Z " fill="#F6D262" transform="translate(438,279)"/>
<path d="M0 0 C0.495 1.485 0.495 1.485 1 3 C0.34 3 -0.32 3 -1 3 C-1 3.99 -1 4.98 -1 6 C-1.598125 6.268125 -2.19625 6.53625 -2.8125 6.8125 C-4.97224808 7.98493467 -6.35790256 9.19369282 -8 11 C-8.66 10.67 -9.32 10.34 -10 10 C-10 10.66 -10 11.32 -10 12 C-17.35642804 15.42541581 -23.83952201 17.8014043 -32 18 C-29.04607756 16.03071837 -27.38850445 15.54634762 -24 14.8125 C-17.01864029 13.00217401 -10.40376341 9.46679606 -5.3125 4.28125 C-4 3 -4 3 -2 3 C-2 2.34 -2 1.68 -2 1 C-1.34 0.67 -0.68 0.34 0 0 Z " fill="#F5D15D" transform="translate(330,241)"/>
<path d="M0 0 C-13.85780952 5.82396314 -27.08055034 8.39402796 -42 9 C-38.20866319 6.66151142 -34.13458265 6.29568763 -29.8125 5.6875 C-22.44467911 4.57851189 -15.47269456 2.86386338 -8.39575195 0.5378418 C-3.29604552 -1.09868184 -3.29604552 -1.09868184 0 0 Z " fill="#F5D563" transform="translate(308,438)"/>
<path d="M0 0 C9.16905396 0.48258179 17.05533866 7.52962431 24 13 C22.68 13.33 21.36 13.66 20 14 C20 13.34 20 12.68 20 12 C17.69 11.67 15.38 11.34 13 11 C13 10.01 13 9.02 13 8 C12.01 8 11.02 8 10 8 C10 7.01 10 6.02 10 5 C9.01 5 8.02 5 7 5 C7 4.34 7 3.68 7 3 C4.69 2.67 2.38 2.34 0 2 C0 1.34 0 0.68 0 0 Z " fill="#3C8EBC" transform="translate(293,57)"/>
<path d="M0 0 C2.475 0.99 2.475 0.99 5 2 C5 3.65 5 5.3 5 7 C5.66 7 6.32 7 7 7 C7.92017937 18.79192825 7.92017937 18.79192825 5.6640625 21.75390625 C4 22.8125 4 22.8125 1 24 C0.34 23.67 -0.32 23.34 -1 23 C-0.360625 22.360625 0.27875 21.72125 0.9375 21.0625 C3.63859045 17.05178994 4.36440928 13.81485457 4 9 C2.96578012 5.82037516 1.61148014 2.92556265 0 0 Z " fill="#F6CA41" transform="translate(302,379)"/>
<path d="M0 0 C-1.98 0.66 -3.96 1.32 -6 2 C-6 2.66 -6 3.32 -6 4 C-8.87771795 5.91847864 -11.88626628 7.50079488 -15 9 C-15 9.33 -15 9.66 -15 10 C-17.31 10 -19.62 10 -22 10 C-18.64264273 6.12744725 -15.00865789 4.27251223 -10.4375 2.1875 C-9.76525391 1.86330078 -9.09300781 1.53910156 -8.40039062 1.20507812 C-3.37558399 -1.12519466 -3.37558399 -1.12519466 0 0 Z " fill="#4896C0" transform="translate(94,169)"/>
<path d="M0 0 C9.57 0.99 19.14 1.98 29 3 C29 3.33 29 3.66 29 4 C25.10422976 4.05821935 21.20857198 4.0936703 17.3125 4.125 C16.20970703 4.14175781 15.10691406 4.15851562 13.97070312 4.17578125 C12.90400391 4.18222656 11.83730469 4.18867187 10.73828125 4.1953125 C9.26935425 4.21102295 9.26935425 4.21102295 7.77075195 4.22705078 C4.82887228 3.98597685 2.66762274 3.23055542 0 2 C0 1.34 0 0.68 0 0 Z " fill="#418DBA" transform="translate(257,51)"/>
<path d="M0 0 C0 0.99 0 1.98 0 3 C-12.06896552 10 -12.06896552 10 -16 10 C-16 9.34 -16 8.68 -16 8 C-13.69921875 6.30859375 -13.69921875 6.30859375 -10.6875 4.4375 C-9.70136719 3.81746094 -8.71523437 3.19742187 -7.69921875 2.55859375 C-5.0734843 1.0424316 -3.0639791 0 0 0 Z " fill="#F6CB48" transform="translate(193,264)"/>
<path d="M0 0 C13.67329881 2.64171068 13.67329881 2.64171068 17.625 6.6875 C18.305625 7.8321875 18.305625 7.8321875 19 9 C14.37464644 8.43830039 10.83218149 7.17355197 6.6875 5.0625 C5.63949219 4.53785156 4.59148437 4.01320313 3.51171875 3.47265625 C1 2 1 2 0 0 Z " fill="#F5CF53" transform="translate(182,435)"/>
<path d="M0 0 C1.98 0.66 3.96 1.32 6 2 C6 3.65 6 5.3 6 7 C6.66 7 7.32 7 8 7 C8 7.66 8 8.32 8 9 C8.99 9.33 9.98 9.66 11 10 C11.33 11.65 11.66 13.3 12 15 C8.20620942 13.50958227 6.31656242 11.30937488 4 8 C4 7.34 4 6.68 4 6 C3.34 6 2.68 6 2 6 C1.34 4.02 0.68 2.04 0 0 Z " fill="#529AC5" transform="translate(63,330)"/>
<path d="M0 0 C0.66 0.33 1.32 0.66 2 1 C3.45656294 1.12653539 4.91541593 1.22764046 6.375 1.3125 C9.79881104 1.643303 10.78920156 1.83033296 13.5625 4.0625 C14.036875 4.701875 14.51125 5.34125 15 6 C14.319375 5.835 13.63875 5.67 12.9375 5.5 C7.12374985 4.51042551 2.49987013 4.85370922 -3 7 C-3 6.01 -3 5.02 -3 4 C-2.01 4 -1.02 4 0 4 C0 2.68 0 1.36 0 0 Z " fill="#3C8FBA" transform="translate(192,91)"/>
<path d="M0 0 C0.33 0 0.66 0 1 0 C1.5505289 6.33108231 -0.06166589 11.37883909 -3 17 C-4.63671875 18.796875 -4.63671875 18.796875 -6 20 C-6.625 17.125 -6.625 17.125 -7 14 C-6.34 13.34 -5.68 12.68 -5 12 C-1.65749378 8.37895159 -1.02035537 4.70933245 0 0 Z " fill="#F5D25E" transform="translate(328,406)"/>
<path d="M0 0 C1.010625 0.495 2.02125 0.99 3.0625 1.5 C8.40159468 3.78664257 13.43171311 3.34988773 19 2 C18.34 3.32 17.68 4.64 17 6 C11.22192976 6.2358396 6.48675196 5.86783046 1 4 C0.67 2.68 0.34 1.36 0 0 Z " fill="#F4D058" transform="translate(282,401)"/>
<path d="M0 0 C0.66 0.33 1.32 0.66 2 1 C1.34 2.32 0.68 3.64 0 5 C-0.66 5 -1.32 5 -2 5 C-2 5.99 -2 6.98 -2 8 C-1.34 8 -0.68 8 0 8 C-0.125 9.875 -0.125 9.875 -1 12 C-4.0625 13.25 -4.0625 13.25 -7 14 C-6.690625 13.46375 -6.38125 12.9275 -6.0625 12.375 C-4.82172561 9.6015043 -4.4090325 6.99957163 -4 4 C-3.34 4 -2.68 4 -2 4 C-1.34 2.68 -0.68 1.36 0 0 Z " fill="#F9C72F" transform="translate(175,274)"/>
<path d="M0 0 C0.33 0 0.66 0 1 0 C0.98839844 0.61488281 0.97679687 1.22976562 0.96484375 1.86328125 C0.95582031 2.67152344 0.94679688 3.47976562 0.9375 4.3125 C0.92589844 5.11300781 0.91429687 5.91351563 0.90234375 6.73828125 C0.90342145 9.16861334 0.90342145 9.16861334 2 12 C1.01 12.33 0.02 12.66 -1 13 C-1.33 15.97 -1.66 18.94 -2 22 C-2.66 22 -3.32 22 -4 22 C-3.3622098 14.47407567 -1.80110167 7.32901118 0 0 Z " fill="#4A9BC0" transform="translate(53,209)"/>
<path d="M0 0 C1.98 0 3.96 0 6 0 C2.6164619 2.94367815 -0.71373898 4.03313776 -5 5.25 C-6.216875 5.60578125 -7.43375 5.9615625 -8.6875 6.328125 C-11.71579918 6.94235549 -13.17954375 7.09997794 -16 6 C-10.66164461 4.07528683 -5.65020618 2.60108576 0 2 C0 1.34 0 0.68 0 0 Z " fill="#F5D263" transform="translate(403,327)"/>
<path d="M0 0 C0.33 0 0.66 0 1 0 C1.13277344 0.68707031 1.26554688 1.37414062 1.40234375 2.08203125 C1.57894531 2.98308594 1.75554687 3.88414063 1.9375 4.8125 C2.19853516 6.15248047 2.19853516 6.15248047 2.46484375 7.51953125 C2.97741153 10.11397171 2.97741153 10.11397171 4 13 C4.66 13 5.32 13 6 13 C5.67 13.66 5.34 14.32 5 15 C3.68 15 2.36 15 1 15 C1.33 13.68 1.66 12.36 2 11 C1.34 11 0.68 11 0 11 C-2.12634314 6.37207669 -1.59170449 4.77511346 0 0 Z " fill="#2F87B9" transform="translate(183,106)"/>
<path d="M0 0 C1.60488281 0.00676758 1.60488281 0.00676758 3.2421875 0.01367188 C5.86984986 0.02540251 8.49739538 0.04181772 11.125 0.0625 C11.125 0.3925 11.125 0.7225 11.125 1.0625 C9.96742187 1.12308594 8.80984375 1.18367187 7.6171875 1.24609375 C6.07811543 1.33055502 4.53905345 1.41520018 3 1.5 C2.23945312 1.53931641 1.47890625 1.57863281 0.6953125 1.61914062 C-2.66522285 1.80744648 -5.89443265 2.06576904 -9.21875 2.625 C-12.33176157 3.13773132 -14.80827799 2.71965472 -17.875 2.0625 C-17.875 1.7325 -17.875 1.4025 -17.875 1.0625 C-11.93872979 -0.24183619 -6.04167748 -0.04836318 0 0 Z " fill="#408DB9" transform="translate(111.875,165.9375)"/>
<path d="M0 0 C2.0625 0.4375 2.0625 0.4375 4 1 C-3.11389522 7.51936219 -3.11389522 7.51936219 -8 9 C-8 7.68 -8 6.36 -8 5 C-6.68 5 -5.36 5 -4 5 C-4 4.34 -4 3.68 -4 3 C-3.01 2.34 -2.02 1.68 -1 1 C-0.67 0.67 -0.34 0.34 0 0 Z " fill="#F5C94C" transform="translate(420,316)"/>
<path d="M0 0 C0 0.66 0 1.32 0 2 C-10.37357631 6.59225513 -10.37357631 6.59225513 -16 6 C-14.54986969 3.09973937 -12.69479373 2.95045604 -9.6875 1.875 C-8.72199219 1.52179687 -7.75648438 1.16859375 -6.76171875 0.8046875 C-4 0 -4 0 0 0 Z " fill="#529CC1" transform="translate(199,57)"/>
<path d="M0 0 C0.33 0 0.66 0 1 0 C1.16435547 0.99580078 1.16435547 0.99580078 1.33203125 2.01171875 C2.21136023 6.90879478 2.99451714 10.90161428 6 15 C4.68 14.67 3.36 14.34 2 14 C1.67 12.35 1.34 10.7 1 9 C0.34 9 -0.32 9 -1 9 C-1.09765625 2.84765625 -1.09765625 2.84765625 -1 1 C-0.67 0.67 -0.34 0.34 0 0 Z " fill="#F5CB3D" transform="translate(276,386)"/>
<path d="M0 0 C0.6484375 1.81640625 0.6484375 1.81640625 1 4 C-0.22796913 5.51880392 -1.46389477 7.03427464 -2.78515625 8.47265625 C-4.41841045 10.52604014 -4.77230168 12.41941901 -5 15 C-5.66 15 -6.32 15 -7 15 C-6.68383092 8.83470299 -3.50784939 4.82731567 0 0 Z " fill="#F5D063" transform="translate(170,280)"/>
<path d="M0 0 C3.50270401 3.50270401 3.05580639 7.58011525 3.0625 12.3125 C3.04653226 13.8750573 3.02730408 15.43759968 3 17 C2.67 17 2.34 17 2 17 C2 15.02 2 13.04 2 11 C1.01 11 0.02 11 -1 11 C-0.67 7.37 -0.34 3.74 0 0 Z " fill="#F7C73E" transform="translate(435,187)"/>
<path d="M0 0 C0.66 0 1.32 0 2 0 C2 1.32 2 2.64 2 4 C2.99 4.33 3.98 4.66 5 5 C7.04108797 8.00791911 7.19878036 10.42195344 7 14 C4.44736912 11.725306 3.15855185 9.56797307 1.8125 6.4375 C1.46832031 5.65246094 1.12414063 4.86742187 0.76953125 4.05859375 C0 2 0 2 0 0 Z " fill="#5199C6" transform="translate(56,316)"/>
<path d="M0 0 C-1.89248819 0.67610423 -3.7891602 1.34050439 -5.6875 2 C-7.27111328 2.556875 -7.27111328 2.556875 -8.88671875 3.125 C-11.78362056 3.9391857 -14.01700623 4.17709796 -17 4 C-14.50266403 0.92895171 -12.34556159 0.39092693 -8.5 -0.25 C-7.5409375 -0.42015625 -6.581875 -0.5903125 -5.59375 -0.765625 C-3 -1 -3 -1 0 0 Z " fill="#57A0C6" transform="translate(301,236)"/>
<path d="M0 0 C0.66 0 1.32 0 2 0 C2.36504603 1.58086048 2.71660506 3.16483907 3.0625 4.75 C3.25972656 5.63171875 3.45695313 6.5134375 3.66015625 7.421875 C3.99825872 9.98679028 3.81158635 11.57091639 3 14 C-0.44419134 4.58997722 -0.44419134 4.58997722 0 0 Z " fill="#F6D258" transform="translate(162,402)"/>
<path d="M0 0 C9.59453303 6.15034169 9.59453303 6.15034169 13 10 C11.68 10 10.36 10 9 10 C9 9.34 9 8.68 9 8 C7.35 7.67 5.7 7.34 4 7 C3.67 6.01 3.34 5.02 3 4 C2.01 3.67 1.02 3.34 0 3 C0 2.01 0 1.02 0 0 Z " fill="#68A7CC" transform="translate(304,61)"/>
<path d="M0 0 C0.75 1.75 0.75 1.75 1 4 C-0.9375 6.25 -0.9375 6.25 -3 8 C-3.33 7.01 -3.66 6.02 -4 5 C-3.34 5 -2.68 5 -2 5 C-2 4.34 -2 3.68 -2 3 C-3.32 3 -4.64 3 -6 3 C-6 2.34 -6 1.68 -6 1 C-4.02 0.67 -2.04 0.34 0 0 Z " fill="#F7C832" transform="translate(321,423)"/>
<path d="M0 0 C5.54050113 0.56825653 10.03715966 2.62886517 15 5 C11.60731255 6.13089582 10.77743849 5.86432909 7.5 4.75 C6.33984375 4.37101562 6.33984375 4.37101562 5.15625 3.984375 C2.90041531 2.95453743 1.62271845 1.85156336 0 0 Z " fill="#57A1C6" transform="translate(79,348)"/>
<path d="M0 0 C0.99 0 1.98 0 3 0 C3 1.32 3 2.64 3 4 C2.34 4 1.68 4 1 4 C1 9.28 1 14.56 1 20 C0.67 20 0.34 20 0 20 C0 13.4 0 6.8 0 0 Z " fill="#F3C83D" transform="translate(162,295)"/>
<path d="M0 0 C0.66 0.33 1.32 0.66 2 1 C0.515 7.435 0.515 7.435 -1 14 C-1.66 14 -2.32 14 -3 14 C-3.40652968 8.57960425 -2.03993514 4.92984325 0 0 Z " fill="#4594BE" transform="translate(144,281)"/>
<path d="M0 0 C0.33 0 0.66 0 1 0 C1.125 2.875 1.125 2.875 1 6 C0.34 6.66 -0.32 7.32 -1 8 C-2.32 7.34 -3.64 6.68 -5 6 C-3.35830472 3.97945196 -1.69088222 1.97956942 0 0 Z " fill="#4596C2" transform="translate(67,183)"/>
<path d="M0 0 C0.99 0 1.98 0 3 0 C4 3 4 3 3.22265625 4.82421875 C2.1484375 6.54947917 1.07421875 8.27473958 0 10 C-0.33 10 -0.66 10 -1 10 C-1.125 2.25 -1.125 2.25 0 0 Z " fill="#318BC0" transform="translate(185,96)"/>
<path d="M0 0 C1 2 1 2 0.3125 4.5 C-1.15567038 7.29651501 -2.09303901 7.93411431 -5 9 C-5 4.61031544 -2.87194899 3.23094261 0 0 Z " fill="#4491BF" transform="translate(172,69)"/>
<path d="M0 0 C0.99 0 1.98 0 3 0 C2.67 1.98 2.34 3.96 2 6 C1.34 6 0.68 6 0 6 C-0.33 7.32 -0.66 8.64 -1 10 C-1.33 10 -1.66 10 -2 10 C-2 8.02 -2 6.04 -2 4 C-1.34 4 -0.68 4 0 4 C0 2.68 0 1.36 0 0 Z " fill="#4194C1" transform="translate(325,205)"/>
<path d="M0 0 C2.67901932 2.31881505 3.66204403 4.31814468 4.6875 7.6875 C4.93886719 8.49574219 5.19023437 9.30398437 5.44921875 10.13671875 C5.63097656 10.75160156 5.81273437 11.36648437 6 12 C5.01 11.34 4.02 10.68 3 10 C3 9.34 3 8.68 3 8 C2.34 8 1.68 8 1 8 C0.67 5.36 0.34 2.72 0 0 Z " fill="#5199C3" transform="translate(322,79)"/>
<path d="M0 0 C1.98 0.66 3.96 1.32 6 2 C6 3.65 6 5.3 6 7 C4.125 6.875 4.125 6.875 2 6 C0.75 2.9375 0.75 2.9375 0 0 Z " fill="#388DB8" transform="translate(63,330)"/>
<path d="M0 0 C5.63470383 -0.5497272 8.38987758 1.04952165 13 4 C9.29218328 5.23593891 8.32489747 4.5678132 4.8125 3.0625 C3.91144531 2.68222656 3.01039063 2.30195313 2.08203125 1.91015625 C1.39496094 1.60980469 0.70789063 1.30945313 0 1 C0 0.67 0 0.34 0 0 Z " fill="#F3D46F" transform="translate(399,147)"/>
<path d="M0 0 C0.66 0 1.32 0 2 0 C4.22923777 4.32734391 3.92470553 7.28400182 3 12 C0.60926555 8.17482487 0.44033448 4.40334476 0 0 Z " fill="#4998C3" transform="translate(49,286)"/>
<path d="M0 0 C1.65 0.99 3.3 1.98 5 3 C0.25 7 0.25 7 -2 7 C-2 6.34 -2 5.68 -2 5 C-1.34 5 -0.68 5 0 5 C-0.2784375 4.0409375 -0.2784375 4.0409375 -0.5625 3.0625 C-0.7790625 2.0415625 -0.7790625 2.0415625 -1 1 C-0.67 0.67 -0.34 0.34 0 0 Z " fill="#4096C1" transform="translate(303,228)"/>
<path d="M0 0 C0.99 0.495 0.99 0.495 2 1 C2 1.66 2 2.32 2 3 C2.66 3 3.32 3 4 3 C3.6875 4.875 3.6875 4.875 3 7 C2.01 7.66 1.02 8.32 0 9 C0 6.03 0 3.06 0 0 Z " fill="#1275A9" transform="translate(213,105)"/>
<path d="M0 0 C0.33 0.66 0.66 1.32 1 2 C0.34 2 -0.32 2 -1 2 C-1 2.99 -1 3.98 -1 5 C-4.3 5 -7.6 5 -11 5 C-7.36654198 3.18327099 -3.73757294 1.58128086 0 0 Z " fill="#4D9AC6" transform="translate(208,120)"/>
<path d="M0 0 C3.63 0 7.26 0 11 0 C11.66 1.32 12.32 2.64 13 4 C8.71 3.01 4.42 2.02 0 1 C0 0.67 0 0.34 0 0 Z " fill="#F6CE59" transform="translate(289,375)"/>
<path d="M0 0 C0.93423645 3.01031744 1.04449911 3.86650268 0 7 C-0.99 7.495 -0.99 7.495 -2 8 C-2.33 8.99 -2.66 9.98 -3 11 C-3.66 11 -4.32 11 -5 11 C-3.77472971 6.94718288 -2.30119506 3.55639236 0 0 Z " fill="#539FC7" transform="translate(61,190)"/>
<path d="M0 0 C1.45606519 4.52092968 0.27032841 7.51648796 -1 12 C-1.99 12 -2.98 12 -4 12 C-2.66666667 8 -1.33333333 4 0 0 Z " fill="#F4D061" transform="translate(346,214)"/>
<path d="M0 0 C3.44216672 2.6598561 3.99504674 5.90288286 5 10 C4.01 10.495 4.01 10.495 3 11 C3 9.68 3 8.36 3 7 C2.34 7 1.68 7 1 7 C0.67 4.69 0.34 2.38 0 0 Z " fill="#F5D773" transform="translate(426,166)"/>
<path d="M0 0 C3.36720387 1.39332574 4.9859524 2.9789286 7 6 C5.68 6 4.36 6 3 6 C0.8614515 3.8614515 0.57344937 2.86724686 0 0 Z " fill="#F4D25C" transform="translate(413,153)"/>
<path d="M0 0 C2.4375 0.8125 2.4375 0.8125 5 2 C5.33 2.99 5.66 3.98 6 5 C5.01 5 4.02 5 3 5 C3 5.66 3 6.32 3 7 C2.34 7 1.68 7 1 7 C1.33 5.35 1.66 3.7 2 2 C1.34 2 0.68 2 0 2 C0 1.34 0 0.68 0 0 Z " fill="#398CBB" transform="translate(314,70)"/>
<path d="M0 0 C1.485 0.99 1.485 0.99 3 2 C2.67 4.97 2.34 7.94 2 11 C1.67 11 1.34 11 1 11 C0.67 7.37 0.34 3.74 0 0 Z " fill="#F9C313" transform="translate(165,407)"/>
<path d="M0 0 C0.66 0.33 1.32 0.66 2 1 C1.46930939 4.82097239 0.50298434 7.06171403 -2 10 C-1.54177532 6.53058454 -1.10868317 3.32604951 0 0 Z " fill="#4D9AC1" transform="translate(150,266)"/>
<path d="M0 0 C1.32 0.33 2.64 0.66 4 1 C1.44008376 3.01136276 -1.04590299 4.62845496 -4 6 C-3.67 4.68 -3.34 3.36 -3 2 C-2.01 2 -1.02 2 0 2 C0 1.34 0 0.68 0 0 Z " fill="#549EC1" transform="translate(174,245)"/>
<path d="M0 0 C0.8125 1.6875 0.8125 1.6875 1 4 C-1.4375 6.75 -1.4375 6.75 -4 9 C-4.66 8.67 -5.32 8.34 -6 8 C-5.38125 7.236875 -4.7625 6.47375 -4.125 5.6875 C-1.94402948 3.00374191 -1.94402948 3.00374191 0 0 Z " fill="#F6D462" transform="translate(337,232)"/>
<path d="M0 0 C0.66 0 1.32 0 2 0 C0.68775452 3.93673644 -0.91910327 6.22719294 -4 9 C-3.4739075 5.21213403 -2.61896089 2.82847776 0 0 Z " fill="#4D98BF" transform="translate(321,215)"/>
<path d="M0 0 C1.32 0 2.64 0 4 0 C4 0.66 4 1.32 4 2 C4.66 2 5.32 2 6 2 C6.33 2.99 6.66 3.98 7 5 C4.625 4.75 4.625 4.75 2 4 C0.6875 1.9375 0.6875 1.9375 0 0 Z " fill="#2782B8" transform="translate(74,343)"/>
<path d="M0 0 C3 3.75 3 3.75 3 6 C3.66 6 4.32 6 5 6 C4.67 6.66 4.34 7.32 4 8 C2.68 8 1.36 8 0 8 C0 5.36 0 2.72 0 0 Z " fill="#51A3CD" transform="translate(184,113)"/>
<path d="M0 0 C2 2 2 2 2 6 C0.35 6.66 -1.3 7.32 -3 8 C-2.01 5.36 -1.02 2.72 0 0 Z " fill="#4291C3" transform="translate(212,112)"/>
<path d="M0 0 C2.375 0.1875 2.375 0.1875 5 1 C6.3125 3.5625 6.3125 3.5625 7 6 C3.63279613 4.60667426 2.0140476 3.0210714 0 0 Z " fill="#F3D45D" transform="translate(175,429)"/>
<path d="M0 0 C2.475 0.99 2.475 0.99 5 2 C5 4.31 5 6.62 5 9 C3.05731159 6.08596738 1.53604696 3.14191424 0 0 Z " fill="#F4CD57" transform="translate(302,379)"/>
<path d="M0 0 C-2.62198774 2.15377564 -4.64404172 3.40072174 -8 4 C-8.33 3.01 -8.66 2.02 -9 1 C-5.92677456 0.08941469 -3.19902639 -0.08886184 0 0 Z " fill="#F2D04C" transform="translate(289,376)"/>
<path d="M0 0 C0.66 1.32 1.32 2.64 2 4 C0.02 4.99 0.02 4.99 -2 6 C-2.33 4.68 -2.66 3.36 -3 2 C-2.01 1.34 -1.02 0.68 0 0 Z " fill="#F8C018" transform="translate(334,239)"/>
</svg>
